<?xml version="1.0" encoding="utf-8"?>
<!-- Generator: Adobe Illustrator 26.1.0, SVG Export Plug-In . SVG Version: 6.00 Build 0)  -->
<svg version="1.1" id="Camada_1" xmlns="http://www.w3.org/2000/svg" xmlns:xlink="http://www.w3.org/1999/xlink" x="0px" y="0px"
	 viewBox="0 0 608 442" style="enable-background:new 0 0 608 442;" xml:space="preserve">
<style type="text/css">
	.st0{fill:url(#SVGID_1_);}
	.st1{fill:url(#SVGID_00000147185550177961420980000000833806611142183319_);}
	.st2{fill:url(#SVGID_00000093145151202547440780000008535444952616608401_);}
	.st3{fill:url(#SVGID_00000035513990175264632550000007617668749395319177_);}
	.st4{fill:url(#SVGID_00000008143144147015454310000009648967265202188422_);}
	.st5{fill:url(#SVGID_00000079455624505149116690000011971187218891341449_);}
	.st6{fill:url(#SVGID_00000006666325640070220460000001984184887324923035_);}
	.st7{fill:url(#SVGID_00000037664211689037949540000011839002234687771827_);}
	.st8{fill:#0078D1;}
	.st9{fill:#0080DF;}
	.st10{fill:#3298EF;}
	.st11{fill:#0071BC;}
	.st12{fill:#312E81;}
	.st13{fill:#1E1B4B;}
	.st14{fill:#FFFFFF;}
	.st15{fill:#111827;}
</style>
<image style="overflow:visible;enable-background:new    ;" width="377" height="257" xlink:href="8D14075B.png"  transform="matrix(1 0 0 1 1673 -599)">
</image>
<g>
	
		<linearGradient id="SVGID_1_" gradientUnits="userSpaceOnUse" x1="1814.6638" y1="829.9692" x2="1813.2566" y2="926.7199" gradientTransform="matrix(1 0 0 -1 0 444)">
		<stop  offset="8.597678e-03" style="stop-color:#FF5F6D"/>
		<stop  offset="0.2895" style="stop-color:#FF776E"/>
		<stop  offset="0.8819" style="stop-color:#FFB670"/>
		<stop  offset="1" style="stop-color:#FFC371"/>
	</linearGradient>
	<path class="st0" d="M1894.9-395c-1.8-0.4-3.1-0.8-3.9-1.3s-1.4-1.4-1.6-2.8c3-1.6,5.1-3.4,6.4-5.4s1.8-4.3,1.8-6.7
		c0-2.2-0.7-4.1-2-5.6c-1.3-1.5-3.1-2.2-5.3-2.2c-2.4,0-4.9,1.2-7.7,3.7c-2.7,2.5-5.2,6.5-7.3,12c0-2.4,0.1-4.8,0.2-7.1
		c5.9-6.4,10.1-12,12.7-16.8s3.9-9.4,3.9-13.9c0-2.8-0.6-5-1.9-6.8c-1.3-1.7-2.9-2.6-4.9-2.6c-3.8,0-7.1,2.5-9.8,7.5
		c-2.7,5-4.8,11.2-6.2,18.6c-1.2,6.3-1.9,12.4-2,18.2c-1.1,0.8-2,1.2-2.8,1.2c-1.1,0-1.7-0.8-1.7-2.3c0-0.4,0.2-1.5,0.5-3.3
		c0.4-2.2,0.6-3.6,0.6-4.2c0-2.9-1.4-4.3-4.3-4.3c-1.5,0-3.1,0.5-4.8,1.5c-1.8,1-3.5,2.7-5.3,5.1c-1.8,2.4-3.4,5.5-4.9,9.3
		c0.2-1.9,0.4-3.6,0.7-4.9s0.6-2.9,1.1-4.6c0.7-2.5,1-4.1,1-4.8c0-0.6-0.2-1-0.5-1.3s-1-0.3-1.8-0.3c-1.6,0-2.9,0.3-3.8,0.9
		c-0.9,0.6-1.6,1.5-1.9,2.8c-0.8,2.4-1.3,4.9-1.8,7.5c-2,0.4-3.7,0.7-5.3,0.8c-0.3-3.4-1.6-6.3-3.6-8.6s-4.8-3.5-8.1-3.5
		c-2.7,0-5.2,0.7-7.5,2.2c-0.3,0.2-0.5,0.4-0.8,0.5c-0.5-0.3-1.1-0.5-1.9-0.5c-3.1,0-5.7-0.2-7.9-0.6c2.2-6.1,3.2-11.6,3.2-16.6
		c0-3.5-0.8-6.3-2.5-8.4c-1.7-2-3.9-3-6.7-3c-2.3,0-4.4,0.6-6.3,1.8s-3.4,3-4.4,5.4s-1.6,5.4-1.6,8.8c0,3.5,0.7,6.6,2.1,9.2
		c1.4,2.7,3.4,4.9,6.1,6.5c-2.2,4.8-4.6,8.8-7.2,12c-2.6,3.2-5,4.8-7.1,4.8c-1.8,0-3.2-0.8-4.1-2.3c-0.9-1.5-1.6-3.7-1.9-6.7
		c-0.3-2.9-0.5-6.8-0.5-11.7c0-7.2,0.6-14.4,1.9-21.6c0.1-0.4,0.1-1,0.1-1.7c0-1.2-0.3-2.1-1-2.7c-0.6-0.6-1.7-0.9-3-0.9
		c-1.6,0-2.9,0.4-3.9,1.2s-1.6,2.2-1.9,4.2c-1.5,8.8-3.3,16.4-5.5,22.8s-4.3,11.2-6.5,14.4c-2.2,3.2-4.1,4.9-5.6,4.9
		c-1.7,0-3.1-1.6-4.1-4.8c-1-3.2-1.5-7.8-1.5-13.7c0-6.4,0.7-14.1,2-23.1c0.1-0.9,0.1-1.5,0.1-1.8c0-1.5-0.4-2.6-1.1-3.2
		s-1.8-0.9-3.1-0.9c-1.8,0-3.1,0.4-3.9,1.3c-0.8,0.9-1.4,2.4-1.7,4.6c-1.2,7.8-1.7,14.9-1.7,21.4c0,8.9,1.1,16,3.2,21.3
		c2.2,5.3,5.4,7.9,9.6,7.9c3.8,0,7.3-1.9,10.6-5.6s6.3-9.5,9-17.2c0.3,6.9,1.4,12.5,3.3,16.6c1.9,4.1,4.9,6.2,8.7,6.2
		c4.2,0,8.5-2.2,12.9-6.5c4.3-4.4,8.1-9.8,11.2-16.4c2.3,0.5,5,0.7,7.8,0.8c-1.1,2.4-1.6,5.2-1.6,8.2c0,2.5,0.5,4.8,1.5,6.9
		c1,2.1,2.4,3.8,4.3,5.1c1.9,1.3,4.1,1.9,6.8,1.9c3.1,0,5.9-1.1,8.4-3.4c2.5-2.2,4.1-5.2,5-8.9c1.8-0.1,3.5-0.3,5.1-0.6
		c0,0.6,0,1.2,0,1.8c0,3.9,0.3,6.7,1,8.5c0.7,1.8,1.9,2.6,3.5,2.6c1.4,0,2.4-0.4,3-1.1s1.2-2.1,1.7-4.2c0.7-2.7,1.5-5.3,2.6-7.7
		c1.1-2.4,2.1-4.4,3.2-5.9c1.1-1.5,1.9-2.2,2.6-2.2c0.5,0,0.7,0.4,0.7,1.1c0,0.3,0,0.9-0.1,1.8c-0.1,0.7-0.2,1.3-0.2,2
		c0,2,0.6,3.6,1.8,4.8c1.2,1.2,3,1.8,5.3,1.8c1.8,0,3.6-0.5,5.3-1.4c0,0,0,0,0,0c0.1,2,0.2,3.6,0.3,4.9c0.2,2.1,0.7,3.6,1.3,4.6
		c0.6,1,1.7,1.5,3,1.5c1.4,0,2.4-0.4,3-1.1s1.2-2.1,1.7-4.2c0.7-2.9,1.7-5.7,2.9-8.4s2.6-4.9,4-6.7c1.4-1.7,2.8-2.6,3.9-2.6
		c0.5,0,0.9,0.2,1.2,0.6c0.3,0.4,0.5,1,0.5,1.8c0,1.4-0.4,2.5-1.3,3.5s-2.2,1.8-4.2,2.7c-1.8,0.8-2.7,2-2.7,3.7c0,3.2,1,5.8,3,7.7
		s4.6,3,7.8,3c1.9,0,3.3-0.4,4.3-1.3s1.5-1.8,1.5-3C1897.6-393.6,1896.7-394.6,1894.9-395z M1878.4-431.2c0.9-3.9,1.8-6.9,2.8-9.2
		c1-2.3,1.8-3.4,2.7-3.4c0.6,0,1,0.4,1.3,1.1c0.3,0.8,0.5,1.8,0.5,3.2c0,3.1-0.9,6.5-2.7,10.3c-1.8,3.8-4.1,7.3-6.8,10.5
		C1876.8-423.1,1877.5-427.3,1878.4-431.2z M1794.9-420.1c-2.8-2.1-4.2-5.3-4.2-9.6c0-2.6,0.4-4.5,1.1-5.9c0.8-1.4,1.7-2.1,2.9-2.1
		c0.8,0,1.5,0.4,2,1.3c0.5,0.9,0.7,2.2,0.7,4.1C1797.5-429.2,1796.6-425.1,1794.9-420.1z M1822.5-396.5c-1,1.1-2.3,1.7-3.7,1.7
		c-1.3,0-2.4-0.6-3.3-1.9s-1.4-3.1-1.4-5.6c0-3.1,0.6-5.5,1.8-7.2c1.2-1.7,2.6-2.5,4.4-2.5h0.3c-0.1,0.7-0.2,1.4-0.2,2.1
		c0,1.7,0.4,3.3,1.1,4.8s1.8,2.7,3.2,3.6C1824.2-399.3,1823.5-397.6,1822.5-396.5z"/>
	
		<linearGradient id="SVGID_00000102545302039186677450000009073609875323502001_" gradientUnits="userSpaceOnUse" x1="1960.2418" y1="832.0867" x2="1958.8346" y2="928.8374" gradientTransform="matrix(1 0 0 -1 0 444)">
		<stop  offset="8.597678e-03" style="stop-color:#FF5F6D"/>
		<stop  offset="0.2895" style="stop-color:#FF776E"/>
		<stop  offset="0.8819" style="stop-color:#FFB670"/>
		<stop  offset="1" style="stop-color:#FFC371"/>
	</linearGradient>
	<path style="fill:url(#SVGID_00000102545302039186677450000009073609875323502001_);" d="M2001.7-416.1c-1.6-2-3.6-3-6.1-3
		c-1.6,0-3,0.4-4.4,1.2s-2.8,2-4.2,3.8c0-0.5-0.1-1.4-0.1-2.5c0-1.1-0.3-1.8-0.7-2.2c-0.4-0.4-1.1-0.6-2-0.6c-1.6,0-2.9,0.4-4,1.1
		c-1.1,0.8-1.6,1.8-1.5,3c0.1,2.5,0.1,7,0.1,13.5c-0.3,0.5-0.6,1-0.8,1.4c-1.3,1.4-2.5,2.5-3.5,3.2c-1.4,1-2.8,1.5-4.3,1.5
		c-1.4,0-2.5-0.5-3.3-1.4c-0.8-1-1.2-2.3-1.2-4.1c0-1.2,0.2-3.1,0.5-5.7c0.7-5.6,1.7-11.9,2.8-18.6c0.6-3.5,1-6.2,1.3-8.1
		c0.3-1.9,0.4-3.5,0.4-4.7c0-2.1-0.4-3.6-1.1-4.5c-0.8-0.9-1.9-1.4-3.4-1.4c-1.7,0-2.9,0.4-3.5,1.3s-1.1,2.5-1.4,4.7
		c-1.3,9.8-3.1,17.9-5.4,24.1c-2.3,6.3-4.8,10.9-7.6,13.7c-2.7,2.8-5.4,4.2-8.1,4.2c-1.5,0-2.6-0.4-3.4-1.3s-1.2-2-1.2-3.4
		c0-0.9,0.1-1.8,0.2-2.7s0.3-1.9,0.5-2.9c0.2-1,0.4-1.7,0.5-2.1l2.7-12.1c0.8-3.3,1.3-5.9,1.6-7.8c0.3-1.9,0.5-4,0.5-6.2
		c0-3.2-0.8-5.6-2.3-7.2c-1.5-1.6-3.6-2.5-6.3-2.5c-6.1,0-11.3,3.1-15.8,9.3c-1.2,1.7-1.9,3.3-1.9,4.6c0,0.8,0.2,1.4,0.7,2
		c0.5,0.6,1,0.9,1.6,0.9c0.8,0,1.4-0.4,2.1-1.3c1.9-2.6,3.8-4.5,5.6-5.8c1.8-1.3,3.3-1.9,4.6-1.9c0.7,0,1.3,0.3,1.7,0.8
		c0.4,0.5,0.6,1.3,0.6,2.4c0,1.9-0.2,3.6-0.5,5.2c-0.3,1.6-0.5,2.6-0.6,2.9l-4.1,19c-0.6,2.8-0.9,5.1-0.9,7.1c0,3.4,0.9,6.2,2.8,8.2
		c1.9,2,4.7,3.1,8.4,3.1c4.4,0,8.3-1.7,11.7-5.1c3.4-3.4,6.2-8.4,8.4-14.8c-0.7,4.9-1.1,8.1-1.1,9.8c0,3,1,5.4,2.9,7.3
		c1.9,1.9,4.8,2.8,8.4,2.8c1.3,0,2.7-0.2,3.9-0.6c-0.8,1.9-1.6,3.8-2.2,5.6c-2,5.8-3,10.8-3,15.1c0,3,0.6,5.4,1.7,7.1
		s2.9,2.6,5.3,2.6c3.9,0,6.9-2.9,8.9-8.6c2-5.7,3.3-12.8,3.9-21.4c3.1-0.1,5.9-1.1,8.6-3c2.7-1.9,4.8-4.5,6.4-7.6
		c1.6-3.1,2.4-6.4,2.4-9.9C2004-411.5,2003.2-414.1,2001.7-416.1z M1977.3-372.1c-0.8,5.2-1.8,7.8-3,7.8c-0.4,0-0.8-0.4-1.2-1.1
		c-0.3-0.8-0.5-1.8-0.5-3.2c0-2.7,0.6-6.1,1.7-10.1c1.1-4,2.6-8.2,4.5-12.6C1978.6-383.7,1978.1-377.3,1977.3-372.1z M1994.6-401.9
		c-0.8,2-1.9,3.8-3.2,5.2c-1.3,1.4-2.8,2.3-4.4,2.6c0-1.1,0.1-2.7,0.1-4.7c0-3.8,0-6.6,0.1-8.5c2.2-3.4,4.2-5,5.8-5
		c0.9,0,1.6,0.3,2.1,1s0.8,1.7,0.8,3C1995.8-406.1,1995.3-404,1994.6-401.9z"/>
</g>
<g>
	<g>
		<g>
			
				<linearGradient id="SVGID_00000147201783443477577530000004835382559947284101_" gradientUnits="userSpaceOnUse" x1="1930.9485" y1="911.0215" x2="1875.2832" y2="966.6868" gradientTransform="matrix(1 0 0 -1 0 444)">
				<stop  offset="8.597678e-03" style="stop-color:#FF5F6D"/>
				<stop  offset="0.2895" style="stop-color:#FF776E"/>
				<stop  offset="0.8819" style="stop-color:#FFB670"/>
				<stop  offset="1" style="stop-color:#FFC371"/>
			</linearGradient>
			<path style="fill:url(#SVGID_00000147201783443477577530000004835382559947284101_);" d="M1907.1-503.2l-22.8-22.8
				c-3.4-3.4-8.9-3.4-12.3,0c-3.4,3.4-3.4,8.9,0,12.3l22.8,22.8c3.4,3.4,8.9,3.4,12.3,0C1910.5-494.3,1910.5-499.8,1907.1-503.2z"/>
			
				<linearGradient id="SVGID_00000086662836830484255400000008681301036983517861_" gradientUnits="userSpaceOnUse" x1="1900.6418" y1="940.7018" x2="1835.5995" y2="875.6593" gradientTransform="matrix(1 0 0 -1 0 444)">
				<stop  offset="8.597678e-03" style="stop-color:#FF5F6D"/>
				<stop  offset="0.2895" style="stop-color:#FF776E"/>
				<stop  offset="0.8819" style="stop-color:#FFB670"/>
				<stop  offset="1" style="stop-color:#FFC371"/>
			</linearGradient>
			<path style="fill:url(#SVGID_00000086662836830484255400000008681301036983517861_);" d="M1907.1-503.2L1907.1-503.2
				c3.4,3.4,3.4,8.9,0,12.3l-22.8,22.8c-3.4,3.4-8.9,3.4-12.3,0l0,0c-3.4-3.4-3.4-8.9,0-12.3l22.8-22.8
				C1898.2-506.6,1903.7-506.6,1907.1-503.2z"/>
		</g>
	</g>
	<g>
		<g>
			
				<linearGradient id="SVGID_00000039110270804565615480000008678646496416384446_" gradientUnits="userSpaceOnUse" x1="-1930.8357" y1="931.2913" x2="-1986.5011" y2="986.9566" gradientTransform="matrix(-1 0 0 -1 -133.7645 444)">
				<stop  offset="8.597678e-03" style="stop-color:#FF5F6D"/>
				<stop  offset="0.2895" style="stop-color:#FF776E"/>
				<stop  offset="0.8819" style="stop-color:#FFB670"/>
				<stop  offset="1" style="stop-color:#FFC371"/>
			</linearGradient>
			<path style="fill:url(#SVGID_00000039110270804565615480000008678646496416384446_);" d="M1820.9-523.5l22.8-22.8
				c3.4-3.4,8.9-3.4,12.3,0c3.4,3.4,3.4,8.9,0,12.3l-22.8,22.8c-3.4,3.4-8.9,3.4-12.3,0S1817.5-520.1,1820.9-523.5z"/>
			
				<linearGradient id="SVGID_00000034088588093649215150000004290090739966116533_" gradientUnits="userSpaceOnUse" x1="-1961.1425" y1="960.972" x2="-2026.1848" y2="895.9296" gradientTransform="matrix(-1 0 0 -1 -133.7645 444)">
				<stop  offset="8.597678e-03" style="stop-color:#FF5F6D"/>
				<stop  offset="0.2895" style="stop-color:#FF776E"/>
				<stop  offset="0.8819" style="stop-color:#FFB670"/>
				<stop  offset="1" style="stop-color:#FFC371"/>
			</linearGradient>
			<path style="fill:url(#SVGID_00000034088588093649215150000004290090739966116533_);" d="M1820.9-523.4L1820.9-523.4
				c-3.4,3.4-3.4,8.9,0,12.3l22.8,22.8c3.4,3.4,8.9,3.4,12.3,0l0,0c3.4-3.4,3.4-8.9,0-12.3l-22.8-22.8
				C1829.8-526.8,1824.3-526.8,1820.9-523.4z"/>
		</g>
	</g>
</g>
<g>
	
		<radialGradient id="SVGID_00000091704888183596014150000011511139524507434673_" cx="1886" cy="-4.5" r="286.486" gradientTransform="matrix(1 0 0 -1 0 444)" gradientUnits="userSpaceOnUse">
		<stop  offset="8.597678e-03" style="stop-color:#FFFFFF"/>
		<stop  offset="1" style="stop-color:#F2F2F2"/>
	</radialGradient>
	
		<rect x="1553.5" y="217" style="fill:url(#SVGID_00000091704888183596014150000011511139524507434673_);" width="665" height="463"/>
	
		<radialGradient id="SVGID_00000132057794869781308080000011710410783032281508_" cx="2564" cy="-4.5" r="286.486" gradientTransform="matrix(1 0 0 -1 0 444)" gradientUnits="userSpaceOnUse">
		<stop  offset="8.597678e-03" style="stop-color:#FFFFFF"/>
		<stop  offset="1" style="stop-color:#F2F2F2"/>
	</radialGradient>
	
		<rect x="2231.5" y="217" style="fill:url(#SVGID_00000132057794869781308080000011710410783032281508_);" width="665" height="463"/>
	
		<image style="overflow:visible;enable-background:new    ;" width="666" height="452" xlink:href="8D140759.png"  transform="matrix(1 0 0 1 1553 -249)">
	</image>
	
		<image style="overflow:visible;enable-background:new    ;" width="666" height="452" xlink:href="8D14075F.png"  transform="matrix(1 0 0 1 2231 -249)">
	</image>
</g>
<g>
	<text transform="matrix(1 0 0 1 1778.4551 490.7344)" class="st10" style="font-family:'Eurostile-Hea'; font-size:95.2712px;">ORK UP</text>
	<g>
		<path class="st8" d="M1667.8,452.2c-3.7,3.4-8.4,5.6-13.4,6.4l0,0v0l11.8,24l7.3-18.8L1667.8,452.2z"/>
		<path class="st9" d="M1686.9,490.4L1686.9,490.4L1686.9,490.4L1686.9,490.4z"/>
		<path class="st9" d="M1687.1,490L1687.1,490L1687.1,490C1687.1,490,1687.1,490,1687.1,490z"/>
		<path class="st9" d="M1711.9,436.1c-0.5,0.1-0.9,0.2-1.4,0.3C1710.9,436.4,1711.4,436.3,1711.9,436.1z"/>
		<path class="st9" d="M1713.8,435.5c-0.4,0.1-0.8,0.3-1.2,0.4C1713,435.8,1713.4,435.7,1713.8,435.5z"/>
		<path class="st9" d="M1717.5,433.7c-0.4,0.2-0.7,0.4-1.1,0.6C1716.8,434.1,1717.1,433.9,1717.5,433.7z"/>
		<path class="st9" d="M1721.2,430.6c0.2-0.2,0.3-0.3,0.5-0.5v0c0.2-0.3,0.5-0.5,0.7-0.8c0.2-0.3,0.4-0.6,0.7-0.9
			c0.1-0.1,0.2-0.2,0.2-0.4c0,0,0,0,0.1-0.1c-0.3,0.5-0.6,0.9-0.9,1.3C1722.1,429.8,1721.7,430.2,1721.2,430.6z"/>
		<path class="st9" d="M1725.1,424.7c0.1-0.2,0.2-0.5,0.3-0.8c0.1-0.2,0.2-0.5,0.3-0.8c0.1-0.3,0.2-0.5,0.2-0.8s0.1-0.5,0.2-0.8
			c0.1-0.3,0.1-0.5,0.2-0.8c0,0,0,0,0,0c0.1-0.3,0.1-0.5,0.1-0.8c-0.2,1-0.4,2.1-0.8,3.1C1725.6,423.7,1725.4,424.2,1725.1,424.7z"
			/>
		<path class="st9" d="M1723.6,427.6c0.1-0.1,0.1-0.1,0.1-0.2c0.1-0.1,0.1-0.1,0.1-0.2c0.1-0.1,0.1-0.2,0.2-0.3
			c0.1-0.1,0.1-0.2,0.1-0.2c-0.2,0.4-0.4,0.8-0.7,1.1C1723.5,427.8,1723.6,427.7,1723.6,427.6z"/>
		<path class="st9" d="M1720.8,431.1c-0.3,0.3-0.7,0.6-1,0.9C1720.1,431.7,1720.4,431.4,1720.8,431.1z"/>
		<path class="st9" d="M1719.2,432.5c-0.3,0.3-0.7,0.5-1.1,0.8C1718.5,433,1718.8,432.8,1719.2,432.5z"/>
		<path class="st9" d="M1690.5,428.3C1690.6,428.3,1690.6,428.3,1690.5,428.3c0.1,0.1,0.2,0.2,0.2,0.3
			C1690.7,428.5,1690.6,428.5,1690.5,428.3C1690.6,428.3,1690.6,428.3,1690.5,428.3z"/>
		<path class="st9" d="M1724.7,425.7c0.1-0.1,0.1-0.2,0.2-0.4c0.1-0.1,0.1-0.2,0.2-0.4c0,0,0-0.1,0-0.1c-0.2,0.4-0.4,0.8-0.6,1.2
			C1724.6,426,1724.6,425.9,1724.7,425.7z"/>
		<path class="st9" d="M1694.3,401.4C1694.3,401.5,1694.2,401.5,1694.3,401.4c-0.2,0.2-0.4,0.3-0.5,0.5
			C1693.9,401.8,1694.1,401.6,1694.3,401.4C1694.2,401.5,1694.3,401.5,1694.3,401.4z"/>
		<path class="st9" d="M1707.8,436.8l-0.4,0.9l0,0L1707.8,436.8c0.7,0,1.4-0.1,2.1-0.2C1709.2,436.7,1708.5,436.8,1707.8,436.8z"/>
		<path class="st9" d="M1707.7,397c0.2,0,0.3,0,0.5,0c0.5,0,0.9,0.1,1.4,0.1c0.1,0,0.3,0,0.4,0.1c0.1,0,0.1,0,0.2,0
			c0.2,0,0.3,0,0.5,0.1c0.3,0,0.6,0.1,0.8,0.2c0.3,0.1,0.5,0.1,0.8,0.2c0.2,0,0.3,0.1,0.4,0.1c0.2,0.1,0.5,0.2,0.7,0.2
			c0.1,0,0.3,0.1,0.4,0.1c0.4,0.1,0.7,0.3,1.1,0.4c0.2,0.1,0.3,0.2,0.5,0.2c0,0,0,0,0,0l0,0c0,0,0,0,0,0c-0.2-0.1-0.3-0.2-0.5-0.2
			c-0.3-0.1-0.7-0.3-1.1-0.4c-0.1,0-0.3-0.1-0.4-0.1c-0.2-0.1-0.5-0.2-0.7-0.2c-0.2,0-0.3-0.1-0.4-0.1c-0.2-0.1-0.5-0.1-0.8-0.2
			c-0.3-0.1-0.6-0.1-0.8-0.2c-0.2,0-0.3-0.1-0.5-0.1c-0.1,0-0.1,0-0.2,0c-0.1,0-0.3,0-0.4-0.1c-0.5-0.1-0.9-0.1-1.4-0.1
			C1708,397,1707.8,397,1707.7,397c-0.1,0-0.1,0-0.2,0c-0.2,0-0.4,0-0.7,0l0,0c0.2,0,0.4,0,0.7,0C1707.6,397,1707.6,397,1707.7,397z
			"/>
		<path class="st9" d="M1705.6,397C1705.6,397,1705.6,397,1705.6,397C1705.6,397,1705.6,397,1705.6,397
			C1705.6,397,1705.6,397,1705.6,397L1705.6,397z"/>
		<path class="st9" d="M1717.4,400c0.4,0.3,0.9,0.6,1.3,0.9c0,0,0,0-0.1,0c-0.1-0.1-0.2-0.1-0.3-0.2c-0.2-0.1-0.3-0.2-0.5-0.3
			C1717.7,400.2,1717.5,400.1,1717.4,400c-0.2-0.1-0.4-0.2-0.6-0.4c-0.4-0.2-0.8-0.5-1.3-0.7l0,0c0.4,0.2,0.9,0.4,1.3,0.7
			C1716.9,399.7,1717.2,399.9,1717.4,400z"/>
		<path class="st9" d="M1726.5,419.8c0.6-3.6,0.1-7.5-1.6-11.1c-0.5-1-1-1.9-1.6-2.8C1726.1,409.9,1727.3,414.9,1726.5,419.8z"/>
		<path class="st9" d="M1715.7,434.7c-0.4,0.2-0.8,0.4-1.2,0.5C1714.9,435.1,1715.3,434.9,1715.7,434.7z"/>
		<path class="st9" d="M1688.3,424.2c0.1,0.2,0.2,0.5,0.3,0.7c0,0,0,0,0,0c-0.2-0.5-0.5-1.1-0.7-1.7
			C1688.1,423.6,1688.2,423.9,1688.3,424.2z"/>
		<path class="st9" d="M1689,425.7c0.1,0.2,0.2,0.5,0.4,0.7c0,0,0,0,0,0c0.1,0.2,0.2,0.3,0.3,0.5c-0.3-0.6-0.7-1.2-0.9-1.8
			C1688.8,425.3,1688.9,425.5,1689,425.7z"/>
		<path class="st9" d="M1687.3,420.4c-0.1-0.3-0.1-0.6-0.1-0.9C1687.2,419.8,1687.2,420.1,1687.3,420.4z"/>
		<path class="st9" d="M1722.8,405c-0.1-0.2-0.3-0.3-0.4-0.5c0.3,0.4,0.5,0.7,0.8,1.1C1723.1,405.4,1723,405.2,1722.8,405z"/>
		<path class="st9" d="M1687,417.7c0-0.1,0-0.2,0-0.3C1687,417.5,1687,417.6,1687,417.7z"/>
		<path class="st9" d="M1721.6,403.6c-0.1-0.1-0.2-0.2-0.3-0.4c0,0,0,0-0.1-0.1c0.3,0.3,0.5,0.6,0.8,0.9
			C1721.9,403.9,1721.8,403.7,1721.6,403.6z"/>
		<path class="st9" d="M1687.8,422.7c-0.2-0.5-0.3-1-0.4-1.5C1687.6,421.8,1687.7,422.2,1687.8,422.7z"/>
		<path class="st9" d="M1720.9,402.8c-0.1-0.1-0.2-0.2-0.2-0.2c-0.2-0.2-0.3-0.3-0.5-0.5c0.4,0.4,0.8,0.7,1.1,1.1
			C1721.1,403,1721,402.9,1720.9,402.8z"/>
		<path class="st9" d="M1691.8,430c0.2,0.3,0.5,0.5,0.7,0.8c0,0,0,0,0,0c-0.4-0.4-0.7-0.8-1.1-1.2
			C1691.6,429.7,1691.7,429.8,1691.8,430z"/>
		<path class="st9" d="M1692.7,402.9c-0.2,0.1-0.3,0.3-0.4,0.4c-0.1,0.1-0.2,0.2-0.3,0.4c-0.1,0.1-0.1,0.1-0.2,0.2
			c0,0-0.1,0.1-0.1,0.1c0.4-0.4,0.8-0.9,1.2-1.2C1692.8,402.8,1692.7,402.9,1692.7,402.9z"/>
		<path class="st9" d="M1690.8,405.2c0.1-0.2,0.3-0.4,0.4-0.5C1691,404.9,1690.9,405,1690.8,405.2z"/>
		<path class="st8" d="M1724.1,437.1c-3.9,3.3-8.7,5.5-13.8,6.1l0,0l17.8,39.1l7.7-19.6L1724.1,437.1z"/>
		<polygon class="st9" points="1748.9,489.9 1748.9,489.9 1748.9,489.9 		"/>
		<polygon class="st9" points="1732.8,486.5 1732.2,488.1 1732.1,488.4 1733,486.1 		"/>
		<path class="st10" d="M1709.8,436.6c0.2,0,0.4-0.1,0.6-0.1c0.5-0.1,0.9-0.2,1.4-0.3c0.2-0.1,0.5-0.1,0.7-0.2
			c0.4-0.1,0.8-0.2,1.2-0.4c0.2-0.1,0.5-0.2,0.7-0.3c0.4-0.2,0.8-0.3,1.2-0.5c0.2-0.1,0.5-0.2,0.7-0.4c0.4-0.2,0.8-0.4,1.1-0.6
			c0.2-0.1,0.4-0.3,0.6-0.4c0.4-0.2,0.7-0.5,1.1-0.8c0.2-0.1,0.4-0.3,0.6-0.5c0.3-0.3,0.7-0.6,1-0.9c0.2-0.1,0.3-0.3,0.5-0.5
			c0.4-0.4,0.8-0.9,1.2-1.4c0.3-0.4,0.7-0.9,0.9-1.3c0,0,0.1-0.1,0.1-0.1c0.2-0.4,0.5-0.7,0.7-1.1c0.1-0.2,0.2-0.4,0.3-0.6
			c0.2-0.4,0.4-0.8,0.6-1.2c0-0.1,0.1-0.1,0.1-0.2c0.2-0.5,0.4-1,0.6-1.5c0.3-1,0.6-2.1,0.8-3.1c0-0.1,0-0.2,0-0.3
			c0.7-4.9-0.5-9.9-3.2-13.9c-0.1-0.1-0.1-0.1-0.1-0.2c-0.2-0.4-0.5-0.7-0.8-1.1c-0.1-0.2-0.3-0.3-0.4-0.5c-0.3-0.3-0.5-0.6-0.8-0.9
			c0,0,0,0,0,0c-0.4-0.4-0.7-0.7-1.1-1.1c-0.5-0.4-0.9-0.8-1.5-1.2c-0.4-0.3-0.8-0.6-1.3-0.9c-0.2-0.1-0.4-0.2-0.6-0.4
			c-0.4-0.2-0.8-0.5-1.3-0.7l0,0l0,0c0,0,0,0,0,0c-0.2-0.1-0.3-0.2-0.5-0.2c-0.3-0.1-0.7-0.3-1.1-0.4c-0.1,0-0.3-0.1-0.4-0.1
			c-0.2-0.1-0.5-0.2-0.7-0.2c-0.2,0-0.3-0.1-0.4-0.1c-0.3-0.1-0.5-0.1-0.8-0.2c-0.3-0.1-0.6-0.1-0.8-0.2c-0.2,0-0.3-0.1-0.5-0.1
			c-0.1,0-0.1,0-0.2,0c-0.1,0-0.3,0-0.4-0.1c-0.5-0.1-0.9-0.1-1.4-0.1c-0.2,0-0.3,0-0.5,0c-0.1,0-0.1,0-0.2,0c-0.2,0-0.4,0-0.7,0
			l0,0c-0.2,0-0.4,0-0.6,0c-0.2,0-0.4,0-0.6,0l0,0c0,0,0,0,0,0l0,0c0,0,0,0,0,0c-0.2,0-0.3,0-0.5,0c-0.2,0-0.4,0-0.6,0.1
			c-0.2,0-0.4,0-0.6,0.1c-0.3,0-0.5,0.1-0.8,0.1c-0.1,0-0.2,0-0.3,0.1c-0.2,0-0.3,0.1-0.4,0.1c-0.2,0-0.3,0.1-0.4,0.1
			c-0.2,0-0.3,0.1-0.4,0.1c-0.2,0-0.3,0.1-0.4,0.1c-0.1,0-0.1,0-0.2,0c-0.1,0-0.3,0.1-0.4,0.1c-0.1,0-0.2,0.1-0.4,0.1
			c-0.2,0.1-0.4,0.1-0.6,0.2c-0.4,0.1-0.8,0.3-1.1,0.5c-0.2,0.1-0.4,0.2-0.6,0.3c-0.2,0.1-0.4,0.2-0.6,0.3c-0.2,0.1-0.4,0.2-0.6,0.4
			c-0.2,0.1-0.4,0.2-0.6,0.4s-0.4,0.2-0.6,0.4c-0.3,0.2-0.7,0.5-1,0.7c-0.1,0.1-0.2,0.1-0.2,0.2c0,0-0.1,0-0.1,0.1
			c-0.2,0.1-0.3,0.2-0.4,0.4c-0.1,0.1-0.2,0.2-0.3,0.2c-0.2,0.2-0.4,0.4-0.6,0.5c0,0,0,0,0,0c0,0,0,0,0,0c-0.4,0.4-0.8,0.8-1.2,1.2
			c-0.2,0.2-0.4,0.5-0.6,0.7c-0.1,0.2-0.3,0.4-0.4,0.5c-1,1.4-1.8,2.8-2.5,4.5c-1,2.5-1.4,5.1-1.3,7.7c0,0.1,0,0.2,0,0.3
			c0,0.6,0.1,1.2,0.2,1.8c0,0.3,0.1,0.6,0.1,0.9c0.1,0.3,0.1,0.6,0.2,0.9c0.1,0.5,0.2,1,0.4,1.5c0.1,0.2,0.1,0.4,0.2,0.5
			c0.2,0.6,0.4,1.1,0.7,1.7c0,0,0.1,0.1,0.1,0.1c0.3,0.6,0.6,1.2,0.9,1.8c0,0,0,0,0,0.1c0,0,0,0.1,0.1,0.1c0.2,0.4,0.5,0.8,0.7,1.1
			c0,0,0,0.1,0.1,0.1c0,0,0,0,0,0c0.1,0.1,0.2,0.2,0.2,0.3c0.2,0.3,0.4,0.6,0.7,0.9c0,0,0,0,0,0c0.3,0.4,0.7,0.8,1.1,1.2
			c0.1,0,0.1,0.1,0.1,0.1l-15.1,38.9l-8,20.5l0,0.1l0,0h17.4v0l0.2-0.4l0-0.1l0.1-0.2l20.2-52l0,0l0.4-0.9
			C1708.5,436.8,1709.2,436.7,1709.8,436.6z M1709.9,409c4.4,1.7,6.6,6.6,4.8,11c-1.7,4.4-6.6,6.5-11,4.9s-6.6-6.6-4.8-11
			C1700.6,409.4,1705.5,407.3,1709.9,409z"/>
		<path class="st10" d="M1783.6,382.4c-2.8-1.3-5.7-2-8.6-2c-8,0-15.5,4.8-18.6,12.7c-2.9,7.6-0.9,15.8,4.4,21.2l-21.3,54.9
			l-5.5,14.2l5.5-14.2l0,0l-6.6,16.9l-0.9,2.3l-0.7,1.9l0,0h17.4l0.2-0.5l0,0l0,0l27.1-69.6c7.9-0.4,15.2-5.5,17.9-13.6
			C1797.1,397.2,1792.6,386.7,1783.6,382.4z M1782.9,403.4c-1.7,4.4-6.6,6.5-11,4.9c-4.4-1.7-6.6-6.6-4.8-11c1.7-4.4,6.6-6.5,11-4.9
			C1782.5,394.1,1784.6,399,1782.9,403.4z"/>
		<polygon class="st9" points="1739.5,469.3 1739.5,469.2 1734,483.5 1732.8,486.5 1733,486.1 		"/>
		<path class="st10" d="M1650.7,413.3c-11.1,0-20.1,9-20.1,20.1s9,20.1,20.1,20.1s20.1-9,20.1-20.1
			C1670.9,422.4,1661.9,413.3,1650.7,413.3z M1650.7,441.8c-4.6,0-8.3-3.7-8.3-8.3c0-4.6,3.7-8.3,8.3-8.3c4.6,0,8.3,3.7,8.3,8.3
			S1655.3,441.8,1650.7,441.8z"/>
	</g>
</g>
<g>
	<text transform="matrix(1 0 0 1 2464.4551 490.7344)" class="st11" style="font-family:'Eurostile-Hea'; font-size:95.2712px;">ORK UP</text>
	<g>
		<path class="st11" d="M2353.8,452.2c-3.7,3.4-8.4,5.6-13.4,6.4l0,0v0l11.8,24l7.3-18.8L2353.8,452.2z"/>
		<path class="st11" d="M2372.9,490.4L2372.9,490.4L2372.9,490.4L2372.9,490.4z"/>
		<path class="st11" d="M2373.1,490L2373.1,490L2373.1,490C2373.1,490,2373.1,490,2373.1,490z"/>
		<path class="st11" d="M2397.9,436.1c-0.5,0.1-0.9,0.2-1.4,0.3C2396.9,436.4,2397.4,436.3,2397.9,436.1z"/>
		<path class="st11" d="M2399.8,435.5c-0.4,0.1-0.8,0.3-1.2,0.4C2399,435.8,2399.4,435.7,2399.8,435.5z"/>
		<path class="st11" d="M2403.5,433.7c-0.4,0.2-0.7,0.4-1.1,0.6C2402.8,434.1,2403.1,433.9,2403.5,433.7z"/>
		<path class="st11" d="M2407.2,430.6c0.2-0.2,0.4-0.3,0.5-0.5v0c0.2-0.3,0.5-0.5,0.7-0.8c0.2-0.3,0.4-0.6,0.7-0.9
			c0.1-0.1,0.2-0.2,0.2-0.4c0,0,0,0,0.1-0.1c-0.3,0.5-0.6,0.9-0.9,1.3C2408.1,429.8,2407.7,430.2,2407.2,430.6z"/>
		<path class="st11" d="M2411.1,424.7c0.1-0.2,0.2-0.5,0.3-0.8c0.1-0.2,0.2-0.5,0.3-0.8c0.1-0.3,0.2-0.5,0.2-0.8s0.1-0.5,0.2-0.8
			c0.1-0.3,0.1-0.5,0.2-0.8c0,0,0,0,0,0c0.1-0.3,0.1-0.5,0.1-0.8c-0.2,1-0.4,2.1-0.8,3.1C2411.6,423.7,2411.4,424.2,2411.1,424.7z"
			/>
		<path class="st11" d="M2409.6,427.6c0.1-0.1,0.1-0.1,0.1-0.2c0-0.1,0.1-0.1,0.1-0.2c0.1-0.1,0.1-0.2,0.1-0.3
			c0.1-0.1,0.1-0.2,0.1-0.2c-0.2,0.4-0.4,0.8-0.7,1.1C2409.5,427.8,2409.6,427.7,2409.6,427.6z"/>
		<path class="st11" d="M2406.8,431.1c-0.3,0.3-0.7,0.6-1,0.9C2406.1,431.7,2406.4,431.4,2406.8,431.1z"/>
		<path class="st11" d="M2405.2,432.5c-0.4,0.3-0.7,0.5-1.1,0.8C2404.5,433,2404.9,432.8,2405.2,432.5z"/>
		<path class="st11" d="M2376.5,428.3C2376.6,428.3,2376.6,428.3,2376.5,428.3c0.1,0.1,0.2,0.2,0.2,0.3
			C2376.7,428.5,2376.6,428.5,2376.5,428.3C2376.6,428.3,2376.6,428.3,2376.5,428.3z"/>
		<path class="st11" d="M2410.7,425.7c0.1-0.1,0.1-0.2,0.2-0.4c0.1-0.1,0.1-0.2,0.2-0.4c0,0,0-0.1,0-0.1c-0.2,0.4-0.4,0.8-0.6,1.2
			C2410.6,426,2410.6,425.9,2410.7,425.7z"/>
		<path class="st11" d="M2380.3,401.4C2380.3,401.5,2380.2,401.5,2380.3,401.4c-0.2,0.2-0.4,0.3-0.5,0.5
			C2379.9,401.8,2380.1,401.6,2380.3,401.4C2380.2,401.5,2380.3,401.5,2380.3,401.4z"/>
		<path class="st11" d="M2393.8,436.8l-0.4,0.9l0,0L2393.8,436.8c0.7,0,1.4-0.1,2.1-0.2C2395.2,436.7,2394.5,436.8,2393.8,436.8z"/>
		<path class="st11" d="M2393.6,397c0.2,0,0.3,0,0.5,0c0.5,0,0.9,0.1,1.4,0.1c0.1,0,0.3,0,0.4,0.1c0.1,0,0.1,0,0.2,0
			c0.1,0,0.3,0,0.5,0.1c0.3,0,0.6,0.1,0.9,0.2c0.3,0.1,0.5,0.1,0.8,0.2c0.1,0,0.3,0.1,0.4,0.1c0.2,0.1,0.5,0.2,0.7,0.2
			c0.1,0,0.3,0.1,0.4,0.1c0.4,0.1,0.7,0.3,1.1,0.4c0.2,0.1,0.4,0.2,0.5,0.2c0,0,0,0,0,0l0,0c0,0,0,0,0,0c-0.2-0.1-0.4-0.2-0.5-0.2
			c-0.4-0.1-0.7-0.3-1.1-0.4c-0.1,0-0.3-0.1-0.4-0.1c-0.2-0.1-0.5-0.2-0.7-0.2c-0.1,0-0.3-0.1-0.4-0.1c-0.2-0.1-0.5-0.1-0.8-0.2
			c-0.3-0.1-0.6-0.1-0.9-0.2c-0.1,0-0.3-0.1-0.5-0.1c-0.1,0-0.1,0-0.2,0c-0.1,0-0.3,0-0.4-0.1c-0.5-0.1-0.9-0.1-1.4-0.1
			C2394,397,2393.8,397,2393.6,397c-0.1,0-0.1,0-0.1,0c-0.2,0-0.4,0-0.6,0l0,0c0.2,0,0.4,0,0.6,0C2393.6,397,2393.6,397,2393.6,397z
			"/>
		<path class="st11" d="M2391.6,397C2391.6,397,2391.6,397,2391.6,397C2391.6,397,2391.6,397,2391.6,397
			C2391.6,397,2391.6,397,2391.6,397L2391.6,397z"/>
		<path class="st11" d="M2403.4,400c0.4,0.3,0.9,0.6,1.3,0.9c0,0,0,0-0.1,0c-0.1-0.1-0.2-0.1-0.3-0.2c-0.2-0.1-0.3-0.2-0.5-0.3
			C2403.7,400.2,2403.5,400.1,2403.4,400c-0.2-0.1-0.4-0.2-0.6-0.4c-0.4-0.2-0.8-0.5-1.3-0.7l0,0c0.4,0.2,0.9,0.4,1.3,0.7
			C2402.9,399.7,2403.2,399.9,2403.4,400z"/>
		<path class="st11" d="M2412.5,419.8c0.6-3.6,0.1-7.5-1.6-11.1c-0.5-1-1-1.9-1.6-2.8C2412.1,409.9,2413.3,414.9,2412.5,419.8z"/>
		<path class="st11" d="M2401.7,434.7c-0.4,0.2-0.8,0.4-1.2,0.5C2400.9,435.1,2401.3,434.9,2401.7,434.7z"/>
		<path class="st11" d="M2374.3,424.2c0.1,0.2,0.2,0.5,0.3,0.7c0,0,0,0,0,0c-0.2-0.5-0.5-1.1-0.6-1.7
			C2374.1,423.6,2374.2,423.9,2374.3,424.2z"/>
		<path class="st11" d="M2375,425.7c0.1,0.2,0.2,0.5,0.4,0.7c0,0,0,0,0,0c0.1,0.2,0.2,0.3,0.3,0.5c-0.3-0.6-0.6-1.2-0.9-1.8
			C2374.8,425.3,2374.9,425.5,2375,425.7z"/>
		<path class="st11" d="M2373.3,420.4c-0.1-0.3-0.1-0.6-0.1-0.9C2373.2,419.8,2373.2,420.1,2373.3,420.4z"/>
		<path class="st11" d="M2408.8,405c-0.1-0.2-0.3-0.3-0.4-0.5c0.3,0.4,0.5,0.7,0.8,1.1C2409.1,405.4,2409,405.2,2408.8,405z"/>
		<path class="st11" d="M2373,417.7c0-0.1,0-0.2,0-0.3C2373,417.5,2373,417.6,2373,417.7z"/>
		<path class="st11" d="M2407.6,403.6c-0.1-0.1-0.2-0.2-0.3-0.4c0,0,0,0-0.1-0.1c0.3,0.3,0.5,0.6,0.8,0.9
			C2407.9,403.9,2407.8,403.7,2407.6,403.6z"/>
		<path class="st11" d="M2373.8,422.7c-0.1-0.5-0.3-1-0.4-1.5C2373.6,421.8,2373.7,422.2,2373.8,422.7z"/>
		<path class="st11" d="M2406.9,402.8c-0.1-0.1-0.2-0.2-0.2-0.2c-0.2-0.2-0.3-0.3-0.5-0.5c0.4,0.4,0.8,0.7,1.1,1.1
			C2407.1,403,2407,402.9,2406.9,402.8z"/>
		<path class="st11" d="M2377.8,430c0.2,0.3,0.5,0.5,0.7,0.8c0,0,0,0,0,0c-0.4-0.4-0.7-0.8-1.1-1.2
			C2377.6,429.7,2377.7,429.8,2377.8,430z"/>
		<path class="st11" d="M2378.7,402.9c-0.1,0.1-0.3,0.3-0.4,0.4c-0.1,0.1-0.2,0.2-0.3,0.4c-0.1,0.1-0.1,0.1-0.2,0.2
			c0,0-0.1,0.1-0.1,0.1c0.4-0.4,0.8-0.9,1.1-1.2C2378.8,402.8,2378.7,402.9,2378.7,402.9z"/>
		<path class="st11" d="M2376.8,405.2c0.1-0.2,0.3-0.4,0.4-0.5C2377,404.9,2376.9,405,2376.8,405.2z"/>
		<path class="st11" d="M2410.1,437.1c-3.9,3.3-8.7,5.5-13.8,6.1l0,0l17.8,39.1l7.6-19.6L2410.1,437.1z"/>
		<polygon class="st11" points="2434.9,489.9 2434.9,489.9 2434.9,489.9 		"/>
		<polygon class="st11" points="2418.8,486.5 2418.2,488.1 2418.1,488.4 2419,486.1 		"/>
		<path class="st11" d="M2395.9,436.6c0.2,0,0.4-0.1,0.6-0.1c0.5-0.1,0.9-0.2,1.4-0.3c0.2-0.1,0.5-0.1,0.7-0.2
			c0.4-0.1,0.8-0.2,1.2-0.4c0.2-0.1,0.5-0.2,0.7-0.3c0.4-0.2,0.8-0.3,1.2-0.5c0.2-0.1,0.5-0.2,0.7-0.4c0.4-0.2,0.8-0.4,1.1-0.6
			c0.2-0.1,0.4-0.3,0.6-0.4c0.4-0.2,0.7-0.5,1.1-0.8c0.2-0.1,0.4-0.3,0.6-0.5c0.4-0.3,0.7-0.6,1-0.9c0.2-0.1,0.3-0.3,0.5-0.5
			c0.4-0.4,0.8-0.9,1.2-1.4c0.3-0.4,0.6-0.9,0.9-1.3c0,0,0.1-0.1,0.1-0.1c0.2-0.4,0.5-0.7,0.7-1.1c0.1-0.2,0.2-0.4,0.3-0.6
			c0.2-0.4,0.4-0.8,0.6-1.2c0-0.1,0.1-0.1,0.1-0.2c0.2-0.5,0.4-1,0.6-1.5c0.4-1,0.6-2.1,0.8-3.1c0-0.1,0-0.2,0-0.3
			c0.7-4.9-0.5-9.9-3.1-13.9c-0.1-0.1-0.1-0.1-0.1-0.2c-0.2-0.4-0.5-0.7-0.8-1.1c-0.1-0.2-0.3-0.3-0.4-0.5c-0.3-0.3-0.5-0.6-0.8-0.9
			c0,0,0,0,0,0c-0.4-0.4-0.7-0.7-1.1-1.1c-0.5-0.4-0.9-0.8-1.5-1.2c-0.4-0.3-0.9-0.6-1.3-0.9c-0.2-0.1-0.4-0.2-0.6-0.4
			c-0.4-0.2-0.8-0.5-1.3-0.7l0,0l0,0c0,0,0,0,0,0c-0.2-0.1-0.3-0.2-0.5-0.2c-0.4-0.1-0.7-0.3-1.1-0.4c-0.1,0-0.3-0.1-0.4-0.1
			c-0.2-0.1-0.5-0.2-0.7-0.2c-0.1,0-0.3-0.1-0.4-0.1c-0.3-0.1-0.5-0.1-0.8-0.2c-0.3-0.1-0.6-0.1-0.9-0.2c-0.1,0-0.3-0.1-0.5-0.1
			c-0.1,0-0.1,0-0.2,0c-0.1,0-0.3,0-0.4-0.1c-0.5-0.1-0.9-0.1-1.4-0.1c-0.2,0-0.3,0-0.5,0c-0.1,0-0.1,0-0.1,0c-0.2,0-0.4,0-0.6,0
			l0,0c-0.2,0-0.4,0-0.6,0c-0.2,0-0.4,0-0.6,0l0,0c0,0,0,0,0,0l0,0c0,0,0,0,0,0c-0.2,0-0.3,0-0.5,0c-0.2,0-0.4,0-0.6,0.1
			c-0.2,0-0.4,0-0.6,0.1c-0.3,0-0.5,0.1-0.8,0.1c-0.1,0-0.2,0-0.3,0.1c-0.1,0-0.3,0.1-0.4,0.1s-0.3,0.1-0.4,0.1
			c-0.1,0-0.3,0.1-0.4,0.1c-0.1,0-0.3,0.1-0.4,0.1c-0.1,0-0.1,0-0.1,0c-0.1,0-0.3,0.1-0.4,0.1c-0.1,0-0.2,0.1-0.4,0.1
			c-0.2,0.1-0.4,0.1-0.6,0.2c-0.4,0.1-0.8,0.3-1.1,0.5c-0.2,0.1-0.4,0.2-0.6,0.3c-0.2,0.1-0.4,0.2-0.6,0.3c-0.2,0.1-0.4,0.2-0.6,0.4
			c-0.2,0.1-0.4,0.2-0.6,0.4c-0.2,0.1-0.4,0.2-0.6,0.4c-0.3,0.2-0.6,0.5-1,0.7c-0.1,0.1-0.2,0.1-0.2,0.2c0,0-0.1,0-0.1,0.1
			c-0.1,0.1-0.3,0.2-0.4,0.4c-0.1,0.1-0.2,0.2-0.3,0.2c-0.2,0.2-0.4,0.4-0.6,0.5c0,0,0,0,0,0c0,0,0,0,0,0c-0.4,0.4-0.8,0.8-1.1,1.2
			c-0.2,0.2-0.4,0.5-0.6,0.7c-0.1,0.2-0.3,0.4-0.4,0.5c-1,1.4-1.8,2.8-2.5,4.5c-1,2.5-1.4,5.1-1.3,7.7c0,0.1,0,0.2,0,0.3
			c0,0.6,0.1,1.2,0.2,1.8c0,0.3,0.1,0.6,0.1,0.9c0.1,0.3,0.1,0.6,0.2,0.9c0.1,0.5,0.2,1,0.4,1.5c0.1,0.2,0.1,0.4,0.2,0.5
			c0.2,0.6,0.4,1.1,0.6,1.7c0,0,0.1,0.1,0.1,0.1c0.3,0.6,0.6,1.2,0.9,1.8c0,0,0,0,0,0.1c0,0,0,0.1,0.1,0.1c0.2,0.4,0.5,0.8,0.7,1.1
			c0,0,0,0.1,0.1,0.1c0,0,0,0,0,0c0.1,0.1,0.1,0.2,0.2,0.3c0.2,0.3,0.4,0.6,0.7,0.9c0,0,0,0,0,0c0.3,0.4,0.7,0.8,1.1,1.2
			c0.1,0,0.1,0.1,0.1,0.1l-15.1,38.9l-8,20.5l0,0.1l0,0h17.4v0l0.2-0.4l0-0.1l0.1-0.2l20.2-52l0,0l0.4-0.9
			C2394.5,436.8,2395.2,436.7,2395.9,436.6z M2395.9,409c4.4,1.7,6.6,6.6,4.9,11s-6.6,6.5-11,4.9s-6.6-6.6-4.9-11
			C2386.6,409.4,2391.5,407.3,2395.9,409z"/>
		<path class="st11" d="M2469.6,382.4c-2.8-1.3-5.7-2-8.6-2c-8,0-15.5,4.8-18.6,12.7c-2.9,7.6-0.9,15.8,4.4,21.2l-21.3,54.9
			l-5.5,14.2l5.5-14.2l0,0l-6.6,16.9l-0.9,2.3l-0.8,1.9l0,0h17.4l0.2-0.5l0,0l0,0l27.1-69.6c7.9-0.4,15.2-5.5,17.9-13.6
			C2483.1,397.2,2478.6,386.7,2469.6,382.4z M2468.9,403.4c-1.7,4.4-6.6,6.5-11,4.9c-4.4-1.7-6.6-6.6-4.9-11s6.6-6.5,11-4.9
			S2470.6,399,2468.9,403.4z"/>
		<polygon class="st11" points="2425.5,469.3 2425.5,469.2 2420,483.5 2418.8,486.5 2419,486.1 		"/>
		<path class="st11" d="M2336.7,413.3c-11.1,0-20.1,9-20.1,20.1s9,20.1,20.1,20.1c11.1,0,20.1-9,20.1-20.1
			C2356.9,422.4,2347.9,413.3,2336.7,413.3z M2336.7,441.8c-4.6,0-8.3-3.7-8.3-8.3c0-4.6,3.7-8.3,8.3-8.3s8.3,3.7,8.3,8.3
			S2341.3,441.8,2336.7,441.8z"/>
	</g>
</g>
<g>
	<g>
		<path class="st12" d="M595.2-311.2c16.9,7.4,26.8,20.2,30.3,40.7c1.6,8.2,2.2,20.2,2.2,45.4c0,41.2-1.9,53.5-9.8,66.9
			c-7.1,11.5-19.4,19.4-35.8,22.9c-7.9,1.6-22.7,2.7-39.3,2.7c-28.7,0-42.6-2.5-54.1-9c-14.5-8.2-21.9-19.9-25.1-38.8
			c-1.4-8.2-1.9-17.5-1.9-37.1c0-47.5,2.2-63.1,11.2-75.9c7.1-10.4,19.9-18.3,34.7-21.3c7.4-1.6,22.7-2.7,39.3-2.7
			C572.5-317.5,584.5-315.9,595.2-311.2z M513-275.2c-7.4,6.6-8.5,13.1-8.5,55.7c0,29.2,1.4,37.2,7.1,44c4.6,5.5,12.3,6.8,35.8,6.8
			c22.7,0,29.5-3,33.9-14.5c3-8.2,3.5-14.8,3.5-42.6c0-36.3-0.8-41.2-7.4-48.9c-4.6-5.5-11.8-6.8-33.6-6.8
			C524.7-281.5,518.4-280.1,513-275.2z"/>
		<path class="st12" d="M652.3-316.2H743c18.8,0,31.1,1.9,39.6,6.3C798.7-302,805-288,805-261c0,38-5.7,47.3-33.6,53.5v1.4
			c21.8,1.4,32,12.6,32,35.8v36.3h-42.6v-28.4c0-19.4-6-25.9-23.8-25.9h-42.6v54.4h-42.1L652.3-316.2L652.3-316.2z M738-224.1
			c19.7,0,24-5.5,24-29.8c0-21.8-3.8-26.2-24-26.2h-43.7v56L738-224.1L738-224.1z"/>
		<path class="st12" d="M871.4-244.6h15.6l53.5-71.6h51.1l-68.8,89.1l75.1,93.2h-52.2l-58.5-74.9h-15.8v74.9h-42.1v-182.2h42.1
			V-244.6z"/>
		<path class="st12" d="M1234.7-316.2v118c0,4.9-0.8,19.1-1.6,24.9c-1.4,14.2-9.6,26.2-21.8,32.8c-11.8,6.3-22.9,7.9-53.5,7.9
			c-28.1,0-41.5-1.6-52.7-6.8c-19.7-8.5-25.4-21.6-25.4-55.7v-121h42.1v121c0,22.9,5.2,26.5,36.9,26.5c29.5,0,34.2-3.8,34.2-28.4
			v-119.1L1234.7-316.2L1234.7-316.2z"/>
		<path class="st12" d="M1265-316.2h72.4c23.5,0,23.5,0,29.5,0.3c17.5,0.8,31.7,8.2,39.3,20.2c6.6,10.6,8.7,22.4,8.7,45.6
			c0,27.6-4.6,43.2-15.3,51.9c-7.9,6.6-18,10.4-29,10.6c-1.6,0.3-7.4,0.3-29,0.8h-34.7v52.7H1265L1265-316.2L1265-316.2z
			 M1342.1-223c26.2,0,30.1-3.6,30.1-28.4c0-18.6-2.2-24.9-10.1-28.1c-4.4-1.6-6.3-1.9-18-1.9h-36.9v58.5L1342.1-223L1342.1-223z"/>
	</g>
	<g>
		<g>
			<path class="st13" d="M135.3-244.4c-10.7,9.8-24.1,16.2-38.4,18.3l0,0.1v0l33.9,68.9l21-53.8L135.3-244.4z"/>
		</g>
		<g>
			<path class="st12" d="M190.2-134.9C190.2-134.9,190.2-134.9,190.2-134.9L190.2-134.9L190.2-134.9z"/>
		</g>
		<g>
			<path class="st12" d="M190.7-136.1l0.1-0.2L190.7-136.1C190.6-136.1,190.7-136.1,190.7-136.1z"/>
		</g>
		<g>
			<path class="st12" d="M261.6-290.5c-1.3,0.3-2.7,0.6-4,0.9C259-289.9,260.3-290.1,261.6-290.5z"/>
		</g>
		<g>
			<path class="st12" d="M267.2-292.3c-1.2,0.4-2.4,0.8-3.6,1.2C264.9-291.5,266.1-291.8,267.2-292.3z"/>
		</g>
		<g>
			<path class="st12" d="M277.8-297.5c-1,0.7-2.1,1.3-3.2,1.9C275.7-296.3,276.8-296.9,277.8-297.5z"/>
		</g>
		<g>
			<path class="st12" d="M288.5-306.3c0.5-0.5,1-1,1.5-1.5v0c0.7-0.8,1.4-1.6,2-2.4c0.6-0.8,1.3-1.7,1.9-2.6c0.2-0.3,0.5-0.6,0.7-1
				c0-0.1,0.1-0.1,0.1-0.2c-0.9,1.3-1.8,2.6-2.7,3.8C290.9-308.8,289.7-307.5,288.5-306.3z"/>
		</g>
		<g>
			<path class="st12" d="M299.7-323.3c0.3-0.7,0.6-1.4,0.9-2.1c0.3-0.7,0.5-1.5,0.8-2.2c0.2-0.8,0.5-1.5,0.7-2.2
				c0.2-0.8,0.4-1.5,0.6-2.2c0.2-0.8,0.3-1.5,0.5-2.2c0,0,0,0,0,0c0.2-0.8,0.3-1.5,0.4-2.3c-0.5,3-1.2,6-2.2,9
				C300.9-326.1,300.3-324.7,299.7-323.3z"/>
		</g>
		<g>
			<path class="st12" d="M295.3-314.9c0.1-0.2,0.3-0.4,0.4-0.6c0.1-0.2,0.3-0.4,0.4-0.6c0.2-0.2,0.3-0.5,0.4-0.8
				c0.1-0.2,0.2-0.5,0.4-0.7c-0.6,1.1-1.2,2.2-1.9,3.2C295.1-314.5,295.2-314.7,295.3-314.9z"/>
		</g>
		<g>
			<path class="st12" d="M287.2-305c-1,0.9-1.9,1.8-3,2.7C285.3-303.1,286.2-304,287.2-305z"/>
		</g>
		<g>
			<path class="st12" d="M282.7-301c-1,0.8-2,1.5-3.1,2.2C280.6-299.5,281.7-300.2,282.7-301z"/>
		</g>
		<g>
			<path class="st12" d="M200.5-313c0,0,0.1,0.1,0.1,0.1c0.2,0.3,0.4,0.5,0.6,0.8c-0.2-0.3-0.4-0.5-0.6-0.8
				C200.5-312.9,200.5-312.9,200.5-313z"/>
		</g>
		<g>
			<path class="st12" d="M298.4-320.4c0.2-0.3,0.3-0.7,0.5-1c0.2-0.4,0.3-0.7,0.5-1.1c0-0.1,0.1-0.2,0.1-0.2
				c-0.5,1.2-1.1,2.3-1.7,3.4C298-319.7,298.2-320,298.4-320.4z"/>
		</g>
		<g>
			<path class="st12" d="M211.3-390c-0.1,0.1-0.2,0.1-0.3,0.2c-0.4,0.4-0.9,0.7-1.3,1.1c0.4-0.4,0.8-0.7,1.3-1.1
				C211.1-389.9,211.2-389.9,211.3-390z"/>
		</g>
		<g>
			<path class="st12" d="M249.9-288.7l-1.1,2.7v0L249.9-288.7c2-0.1,3.9-0.3,5.9-0.6C253.9-289,251.9-288.8,249.9-288.7z"/>
		</g>
		<g>
			<path class="st12" d="M249.6-402.7c0.5,0,1,0,1.4,0.1c1.3,0.1,2.7,0.2,4,0.4c0.4,0,0.8,0.1,1.2,0.2c0.2,0,0.4,0,0.6,0.1
				c0.4,0.1,0.9,0.1,1.3,0.2c0.8,0.1,1.6,0.3,2.4,0.5c0.8,0.2,1.5,0.4,2.2,0.6c0.4,0.1,0.8,0.2,1.3,0.4c0.7,0.2,1.4,0.5,2.1,0.7
				c0.4,0.1,0.8,0.3,1.2,0.4c1,0.4,2,0.8,3,1.2c0.5,0.2,1,0.5,1.5,0.7c0,0,0,0,0,0h0c0,0,0,0,0,0c-0.5-0.2-1-0.5-1.5-0.7
				c-1-0.4-2-0.9-3-1.2c-0.4-0.1-0.8-0.3-1.2-0.4c-0.7-0.2-1.4-0.5-2.1-0.7c-0.4-0.1-0.8-0.3-1.3-0.4c-0.7-0.2-1.5-0.4-2.2-0.6
				c-0.8-0.2-1.6-0.4-2.4-0.5c-0.4-0.1-0.9-0.2-1.3-0.2c-0.2,0-0.4-0.1-0.6-0.1c-0.4-0.1-0.8-0.1-1.2-0.2c-1.3-0.2-2.7-0.3-4-0.4
				C250.5-402.7,250-402.7,249.6-402.7c-0.1,0-0.3,0-0.4,0c-0.6,0-1.2,0-1.9,0l0,0c0.6,0,1.2,0,1.9,0
				C249.3-402.8,249.4-402.8,249.6-402.7z"/>
		</g>
		<g>
			<path class="st12" d="M243.8-402.7C243.8-402.7,243.8-402.7,243.8-402.7C243.8-402.7,243.8-402.7,243.8-402.7
				C243.8-402.7,243.8-402.7,243.8-402.7C243.8-402.7,243.8-402.7,243.8-402.7z"/>
		</g>
		<g>
			<path class="st12" d="M277.4-394.2c1.3,0.8,2.5,1.6,3.7,2.5c-0.1,0-0.1-0.1-0.2-0.1c-0.2-0.2-0.5-0.4-0.8-0.5
				c-0.5-0.3-0.9-0.6-1.4-0.9C278.3-393.6,277.9-393.9,277.4-394.2c-0.6-0.4-1.2-0.7-1.8-1.1c-1.2-0.7-2.4-1.3-3.7-1.9h0
				c1.2,0.6,2.5,1.2,3.7,1.9C276.2-394.9,276.8-394.5,277.4-394.2z"/>
		</g>
		<g>
			<path class="st12" d="M303.7-337.4c1.6-10.5,0.3-21.5-4.4-31.9c-1.3-2.9-2.9-5.5-4.6-8.1C302.4-365.8,305.8-351.5,303.7-337.4z"
				/>
		</g>
		<g>
			<path class="st12" d="M272.6-294.6c-1.1,0.5-2.2,1-3.4,1.5C270.4-293.6,271.5-294.1,272.6-294.6z"/>
		</g>
		<g>
			<path class="st12" d="M194.2-324.7c0.3,0.7,0.5,1.4,0.8,2c0,0,0.1,0.1,0.1,0.1c-0.7-1.6-1.3-3.2-1.9-4.9
				C193.5-326.5,193.8-325.6,194.2-324.7z"/>
		</g>
		<g>
			<path class="st12" d="M196-320.5c0.3,0.7,0.6,1.3,1,2c0,0,0,0.1,0.1,0.1c0.3,0.5,0.6,1,0.8,1.5c-1-1.7-1.9-3.4-2.7-5.1
				C195.5-321.6,195.8-321.1,196-320.5z"/>
		</g>
		<g>
			<path class="st12" d="M191.1-335.6c-0.2-0.9-0.3-1.8-0.4-2.6C190.8-337.4,190.9-336.5,191.1-335.6z"/>
		</g>
		<g>
			<path class="st12" d="M293.1-379.7c-0.3-0.5-0.7-0.9-1.1-1.3c0.8,1,1.5,2,2.3,3.1C293.9-378.6,293.5-379.2,293.1-379.7z"/>
		</g>
		<g>
			<path class="st12" d="M190.3-343.4c0-0.3,0-0.6,0-1C190.2-344,190.2-343.7,190.3-343.4z"/>
		</g>
		<g>
			<path class="st12" d="M289.6-383.9c-0.3-0.3-0.6-0.7-0.9-1c0-0.1-0.1-0.1-0.2-0.2c0.8,0.8,1.5,1.7,2.3,2.6
				C290.4-382.9,290.1-383.4,289.6-383.9z"/>
		</g>
		<g>
			<path class="st12" d="M192.7-328.9c-0.4-1.4-0.8-2.8-1.1-4.3C191.9-331.8,192.3-330.3,192.7-328.9z"/>
		</g>
		<g>
			<path class="st12" d="M287.5-386.2c-0.2-0.2-0.5-0.5-0.7-0.7c-0.5-0.5-1-0.9-1.5-1.4c1.1,1,2.2,2,3.2,3.1
				C288.1-385.5,287.8-385.9,287.5-386.2z"/>
		</g>
		<g>
			<path class="st12" d="M204.1-308.2c0.7,0.8,1.4,1.5,2.1,2.3c0,0,0,0,0.1,0.1c-1.1-1.1-2.1-2.2-3.1-3.4
				C203.5-309,203.8-308.6,204.1-308.2z"/>
		</g>
		<g>
			<path class="st12" d="M206.7-385.8c-0.4,0.4-0.8,0.8-1.2,1.2c-0.3,0.3-0.6,0.7-0.9,1c-0.2,0.2-0.3,0.4-0.5,0.5
				c-0.1,0.1-0.2,0.2-0.3,0.4c1.1-1.2,2.1-2.4,3.3-3.6C206.9-386.1,206.8-386,206.7-385.8z"/>
		</g>
		<g>
			<path class="st12" d="M201.1-379.2c0.4-0.5,0.8-1,1.1-1.5C201.8-380.2,201.5-379.7,201.1-379.2z"/>
		</g>
		<g>
			<path class="st13" d="M296.8-287.8c-11.2,9.5-24.9,15.7-39.5,17.6l0,0L308.2-158l21.9-56.3L296.8-287.8z"/>
		</g>
		<g>
			<polygon class="st12" points="367.8,-136.4 367.8,-136.4 367.8,-136.4 			"/>
		</g>
		<g>
			<polygon class="st12" points="321.8,-146.2 319.9,-141.4 319.6,-140.6 322.1,-147.1 			"/>
		</g>
		<g>
			<path class="st12" d="M255.9-289.3c0.6-0.1,1.2-0.2,1.8-0.4c1.3-0.2,2.7-0.5,4-0.9c0.7-0.2,1.4-0.4,2-0.6
				c1.2-0.4,2.4-0.7,3.6-1.2c0.7-0.3,1.4-0.6,2-0.9c1.1-0.5,2.2-1,3.4-1.5c0.7-0.3,1.3-0.7,2-1.1c1.1-0.6,2.1-1.2,3.2-1.9
				c0.6-0.4,1.2-0.8,1.8-1.2c1-0.7,2.1-1.5,3.1-2.2c0.5-0.4,1.1-0.9,1.6-1.3c1-0.9,2-1.8,3-2.7c0.5-0.4,0.9-0.9,1.3-1.3
				c1.2-1.2,2.4-2.5,3.4-3.9c1-1.2,1.9-2.5,2.7-3.8c0.1-0.1,0.2-0.3,0.2-0.4c0.7-1,1.3-2.1,1.9-3.2c0.3-0.6,0.6-1.1,0.9-1.7
				c0.6-1.1,1.2-2.2,1.7-3.4c0.1-0.2,0.1-0.4,0.2-0.6c0.6-1.4,1.2-2.9,1.7-4.4c1-3,1.7-6,2.2-9c0-0.2,0.1-0.5,0.1-0.7
				c2.1-14.1-1.4-28.4-9-40c-0.1-0.2-0.3-0.4-0.4-0.6c-0.7-1-1.5-2.1-2.3-3.1c-0.4-0.5-0.8-0.9-1.1-1.4c-0.7-0.9-1.5-1.8-2.3-2.6
				c0,0-0.1-0.1-0.1-0.1c-1-1.1-2.1-2.1-3.2-3.1c-1.3-1.2-2.7-2.3-4.2-3.4c-1.2-0.9-2.4-1.7-3.7-2.5c-0.6-0.4-1.2-0.7-1.8-1.1
				c-1.2-0.7-2.4-1.3-3.7-1.9h0h0c0,0,0,0,0,0c-0.5-0.2-1-0.5-1.5-0.7c-1-0.4-2-0.9-3-1.2c-0.4-0.1-0.8-0.3-1.2-0.4
				c-0.7-0.2-1.4-0.5-2.1-0.7c-0.4-0.1-0.8-0.3-1.3-0.4c-0.7-0.2-1.5-0.4-2.2-0.6c-0.8-0.2-1.6-0.4-2.4-0.5
				c-0.4-0.1-0.9-0.2-1.3-0.2c-0.2,0-0.4-0.1-0.6-0.1c-0.4-0.1-0.8-0.1-1.2-0.2c-1.3-0.2-2.7-0.3-4-0.4c-0.5,0-1-0.1-1.4-0.1
				c-0.1,0-0.3,0-0.4,0c-0.6,0-1.2,0-1.9,0l0,0c-0.6,0-1.1,0-1.7,0c-0.6,0-1.1,0-1.7,0.1h0c0,0,0,0,0,0l0,0c0,0,0,0,0,0
				c-0.5,0-0.9,0.1-1.4,0.1c-0.6,0-1.1,0.1-1.7,0.2c-0.5,0-1.1,0.1-1.6,0.2c-0.8,0.1-1.5,0.2-2.3,0.4c-0.3,0-0.6,0.1-0.9,0.2
				c-0.4,0.1-0.8,0.2-1.2,0.3c-0.4,0.1-0.9,0.2-1.3,0.3c-0.4,0.1-0.9,0.2-1.3,0.3c-0.4,0.1-0.8,0.2-1.3,0.4c-0.1,0-0.3,0.1-0.4,0.1
				c-0.4,0.1-0.7,0.2-1.1,0.4c-0.4,0.1-0.7,0.2-1.1,0.4c-0.6,0.2-1.1,0.4-1.7,0.6c-1.1,0.4-2.2,0.9-3.3,1.4
				c-0.6,0.3-1.2,0.5-1.8,0.9c-0.6,0.3-1.1,0.6-1.7,0.9c-0.6,0.3-1.1,0.6-1.7,1c-0.6,0.3-1.1,0.7-1.7,1c-0.6,0.3-1.1,0.7-1.6,1.1
				c-0.9,0.6-1.9,1.3-2.7,2c-0.2,0.2-0.5,0.4-0.7,0.6c-0.1,0.1-0.2,0.1-0.3,0.2c-0.4,0.4-0.9,0.7-1.3,1.1c-0.3,0.2-0.5,0.5-0.8,0.7
				c-0.6,0.5-1.1,1-1.6,1.5c0,0-0.1,0.1-0.1,0.1c0,0-0.1,0.1-0.1,0.1c-1.1,1.1-2.2,2.3-3.3,3.6c-0.5,0.6-1.1,1.3-1.6,2
				c-0.4,0.5-0.8,1-1.1,1.5c-2.8,3.9-5.3,8.1-7.1,12.8c-2.8,7.2-4,14.7-3.8,22c0,0.3,0,0.6,0,1c0.1,1.7,0.2,3.4,0.4,5.1
				c0.1,0.9,0.2,1.8,0.4,2.6c0.1,0.8,0.3,1.6,0.5,2.4c0.3,1.4,0.7,2.9,1.1,4.3c0.2,0.5,0.3,1,0.5,1.5c0.6,1.6,1.2,3.3,1.9,4.9
				c0.1,0.1,0.1,0.3,0.2,0.4c0.8,1.8,1.7,3.5,2.7,5.1c0,0.1,0.1,0.1,0.1,0.2c0.1,0.1,0.1,0.2,0.1,0.2c0.7,1.1,1.4,2.2,2.1,3.3
				c0.1,0.1,0.1,0.2,0.2,0.3c0,0,0.1,0.1,0.1,0.1c0.2,0.3,0.4,0.6,0.6,0.8c0.6,0.9,1.2,1.7,1.9,2.5c0,0,0.1,0.1,0.1,0.1
				c1,1.2,2,2.3,3.1,3.4c0.1,0.1,0.2,0.3,0.4,0.4l-43.4,111.7l-22.9,58.8l-0.1,0.2h0h49.8l0,0l0.5-1.2l0.1-0.2l0.2-0.5l58-149.1v0
				l1.1-2.7C251.9-288.8,253.9-289,255.9-289.3z M256.1-368.4c12.6,4.9,18.8,19,13.9,31.6c-4.9,12.6-19,18.8-31.6,13.9
				c-12.6-4.9-18.8-19-13.9-31.6C229.4-367.1,243.5-373.3,256.1-368.4z"/>
		</g>
		<g>
			<path class="st12" d="M467.4-444.6c-8-3.8-16.5-5.6-24.7-5.6c-22.9,0-44.4,13.8-53.2,36.4c-8.4,21.7-2.7,45.4,12.7,60.9
				L341-195.6l-15.8,40.8l15.8-40.8l0,0l-18.9,48.4l-2.5,6.6l-2.1,5.5l-0.1,0.1h49.8l0.6-1.5l0,0v0l77.6-199.7
				c22.7-1.1,43.6-15.8,51.4-39C505.9-402.2,493.2-432.3,467.4-444.6z M465.4-384.3c-4.9,12.6-19,18.8-31.6,13.9
				c-12.6-4.9-18.8-19-13.9-31.6c4.9-12.6,19-18.8,31.6-13.9C464.1-411,470.3-396.9,465.4-384.3z"/>
		</g>
		<g>
			<polygon class="st12" points="341,-195.5 341,-195.6 325.1,-154.8 321.8,-146.2 322.1,-147.1 			"/>
		</g>
		<g>
			<path class="st12" d="M86.3-355.9c-31.9,0-57.8,25.9-57.8,57.8c0,31.9,25.9,57.8,57.8,57.8s57.8-25.9,57.8-57.8
				C144.1-330,118.2-355.9,86.3-355.9z M86.3-274.4c-13.1,0-23.7-10.6-23.7-23.7s10.6-23.7,23.7-23.7s23.7,10.6,23.7,23.7
				S99.4-274.4,86.3-274.4z"/>
		</g>
	</g>
</g>
<g>
	<g>
		<g>
			<path class="st14" d="M154.7,270.8c-12.4,11.4-27.9,18.7-44.5,21.2l0,0.1v0l39.3,79.8l24.3-62.4L154.7,270.8z"/>
		</g>
		<g>
			<path class="st14" d="M218.2,397.7C218.2,397.7,218.3,397.7,218.2,397.7L218.2,397.7L218.2,397.7z"/>
		</g>
		<g>
			<path class="st14" d="M218.8,396.3l0.1-0.2L218.8,396.3C218.8,396.3,218.8,396.3,218.8,396.3z"/>
		</g>
		<g>
			<path class="st14" d="M301,217.4c-1.5,0.4-3.1,0.7-4.6,1C298,218.1,299.5,217.8,301,217.4z"/>
		</g>
		<g>
			<path class="st14" d="M307.5,215.4c-1.4,0.5-2.8,0.9-4.1,1.3C304.8,216.3,306.2,215.9,307.5,215.4z"/>
		</g>
		<g>
			<path class="st14" d="M319.8,209.3c-1.2,0.8-2.5,1.5-3.7,2.1C317.3,210.7,318.6,210,319.8,209.3z"/>
		</g>
		<g>
			<path class="st14" d="M332.2,199.1c0.6-0.6,1.2-1.1,1.7-1.7v0c0.8-0.9,1.6-1.8,2.3-2.8c0.8-1,1.5-2,2.2-3
				c0.3-0.4,0.5-0.8,0.8-1.1c0.1-0.1,0.1-0.2,0.2-0.2c-1,1.5-2,3-3.2,4.4C335,196.2,333.6,197.6,332.2,199.1z"/>
		</g>
		<g>
			<path class="st14" d="M345.2,179.4c0.4-0.8,0.7-1.6,1-2.5c0.3-0.9,0.6-1.7,0.9-2.6s0.6-1.7,0.8-2.6s0.5-1.7,0.7-2.6
				c0.2-0.9,0.4-1.7,0.6-2.6c0,0,0,0,0-0.1c0.2-0.9,0.3-1.8,0.4-2.7c-0.6,3.5-1.4,7-2.5,10.4C346.5,176.1,345.9,177.8,345.2,179.4z"
				/>
		</g>
		<g>
			<path class="st14" d="M340.1,189.1c0.1-0.2,0.3-0.4,0.4-0.7c0.1-0.2,0.3-0.5,0.4-0.7c0.2-0.3,0.3-0.6,0.5-0.9
				c0.1-0.2,0.3-0.5,0.4-0.8c-0.7,1.3-1.5,2.5-2.2,3.7C339.8,189.6,340,189.3,340.1,189.1z"/>
		</g>
		<g>
			<path class="st14" d="M330.7,200.6c-1.1,1.1-2.2,2.1-3.4,3.1C328.4,202.8,329.6,201.7,330.7,200.6z"/>
		</g>
		<g>
			<path class="st14" d="M325.4,205.3c-1.1,0.9-2.3,1.8-3.5,2.6C323.1,207,324.3,206.2,325.4,205.3z"/>
		</g>
		<g>
			<path class="st14" d="M230.2,191.4c0,0.1,0.1,0.1,0.1,0.1c0.2,0.3,0.5,0.6,0.7,1c-0.2-0.3-0.5-0.6-0.7-1
				C230.2,191.5,230.2,191.4,230.2,191.4z"/>
		</g>
		<g>
			<path class="st14" d="M343.7,182.8c0.2-0.4,0.4-0.8,0.6-1.2c0.2-0.4,0.4-0.8,0.6-1.2c0-0.1,0.1-0.2,0.1-0.3
				c-0.6,1.4-1.3,2.7-1.9,4C343.2,183.6,343.5,183.2,343.7,182.8z"/>
		</g>
		<g>
			<path class="st14" d="M242.7,102.1c-0.1,0.1-0.2,0.2-0.3,0.2c-0.5,0.4-1,0.8-1.5,1.3c0.5-0.4,1-0.9,1.5-1.3
				C242.5,102.3,242.6,102.2,242.7,102.1z"/>
		</g>
		<g>
			<path class="st14" d="M287.5,219.5l-1.2,3.1v0L287.5,219.5c2.3-0.1,4.6-0.4,6.8-0.7C292.1,219.2,289.8,219.4,287.5,219.5z"/>
		</g>
		<g>
			<path class="st14" d="M287,87.3c0.5,0,1.1,0.1,1.6,0.1c1.5,0.1,3.1,0.2,4.6,0.5c0.5,0.1,0.9,0.1,1.4,0.2c0.2,0,0.5,0.1,0.7,0.1
				c0.5,0.1,1,0.2,1.5,0.3c0.9,0.2,1.9,0.4,2.8,0.6c0.9,0.2,1.7,0.4,2.6,0.7c0.5,0.1,1,0.3,1.5,0.4c0.8,0.2,1.6,0.5,2.5,0.8
				c0.5,0.2,0.9,0.3,1.4,0.5c1.2,0.4,2.4,0.9,3.5,1.4c0.6,0.3,1.1,0.5,1.7,0.8c0,0,0,0,0,0h0c0,0,0,0,0,0c-0.6-0.3-1.1-0.5-1.7-0.8
				c-1.2-0.5-2.4-1-3.5-1.4c-0.5-0.2-0.9-0.3-1.4-0.5c-0.8-0.3-1.6-0.6-2.5-0.8c-0.5-0.2-1-0.3-1.5-0.4c-0.9-0.2-1.7-0.5-2.6-0.7
				c-0.9-0.2-1.9-0.4-2.8-0.6c-0.5-0.1-1-0.2-1.5-0.3c-0.2-0.1-0.4-0.1-0.7-0.1c-0.5-0.1-0.9-0.2-1.4-0.2c-1.5-0.2-3.1-0.4-4.6-0.5
				C288.2,87.4,287.6,87.4,287,87.3c-0.2,0-0.3,0-0.5,0c-0.7,0-1.5,0-2.2,0l0,0c0.7,0,1.5,0,2.2,0C286.7,87.3,286.9,87.3,287,87.3z"
				/>
		</g>
		<g>
			<path class="st14" d="M280.4,87.4C280.4,87.4,280.4,87.4,280.4,87.4C280.4,87.4,280.4,87.4,280.4,87.4
				C280.4,87.4,280.4,87.4,280.4,87.4C280.4,87.4,280.4,87.4,280.4,87.4z"/>
		</g>
		<g>
			<path class="st14" d="M319.3,97.3c1.5,0.9,2.9,1.9,4.3,2.9c-0.1-0.1-0.1-0.1-0.2-0.2c-0.3-0.2-0.6-0.4-0.9-0.6
				c-0.5-0.4-1-0.7-1.6-1.1C320.4,98,319.9,97.6,319.3,97.3c-0.6-0.4-1.4-0.8-2-1.2c-1.4-0.8-2.8-1.5-4.2-2.2h0
				c1.5,0.7,2.9,1.4,4.3,2.2C318,96.4,318.6,96.8,319.3,97.3z"/>
		</g>
		<g>
			<path class="st14" d="M349.8,163.1c1.8-12.1,0.3-24.9-5.1-36.9c-1.5-3.3-3.4-6.4-5.3-9.4C348.2,130.2,352.2,146.7,349.8,163.1z"
				/>
		</g>
		<g>
			<path class="st14" d="M313.8,212.6c-1.3,0.6-2.6,1.2-3.9,1.7C311.2,213.8,312.5,213.3,313.8,212.6z"/>
		</g>
		<g>
			<path class="st14" d="M222.9,177.8c0.3,0.8,0.6,1.6,1,2.3c0,0.1,0.1,0.1,0.1,0.2c-0.8-1.8-1.5-3.7-2.2-5.6
				C222.1,175.7,222.5,176.8,222.9,177.8z"/>
		</g>
		<g>
			<path class="st14" d="M225,182.6c0.4,0.8,0.8,1.5,1.2,2.3c0,0,0,0.1,0.1,0.1c0.3,0.6,0.6,1.1,1,1.7c-1.1-1.9-2.1-3.9-3.1-6
				C224.5,181.4,224.7,182,225,182.6z"/>
		</g>
		<g>
			<path class="st14" d="M219.3,165.1c-0.2-1-0.3-2-0.4-3.1C219,163.1,219.1,164.1,219.3,165.1z"/>
		</g>
		<g>
			<path class="st14" d="M337.5,114c-0.4-0.5-0.9-1-1.3-1.5c0.9,1.2,1.8,2.3,2.6,3.6C338.4,115.4,338,114.6,337.5,114z"/>
		</g>
		<g>
			<path class="st14" d="M218.3,156.1c0-0.4,0-0.7,0-1.1C218.3,155.4,218.3,155.7,218.3,156.1z"/>
		</g>
		<g>
			<path class="st14" d="M333.5,109.2c-0.4-0.4-0.7-0.8-1.1-1.2c-0.1-0.1-0.1-0.1-0.2-0.2c0.9,1,1.8,2,2.6,3
				C334.4,110.3,334,109.7,333.5,109.2z"/>
		</g>
		<g>
			<path class="st14" d="M221.2,172.9c-0.5-1.6-0.9-3.3-1.3-5C220.2,169.6,220.7,171.2,221.2,172.9z"/>
		</g>
		<g>
			<path class="st14" d="M331,106.5c-0.3-0.3-0.5-0.6-0.8-0.8c-0.6-0.6-1.1-1.1-1.7-1.6c1.3,1.2,2.5,2.3,3.7,3.6
				C331.8,107.3,331.4,106.9,331,106.5z"/>
		</g>
		<g>
			<path class="st14" d="M234.4,196.8c0.8,0.9,1.6,1.8,2.4,2.6c0,0,0.1,0,0.1,0.1c-1.2-1.3-2.5-2.6-3.6-4
				C233.7,196,234.1,196.4,234.4,196.8z"/>
		</g>
		<g>
			<path class="st14" d="M237.4,106.9c-0.5,0.5-1,1-1.4,1.4c-0.4,0.4-0.7,0.8-1.1,1.2c-0.2,0.2-0.4,0.4-0.5,0.6
				c-0.1,0.1-0.2,0.3-0.3,0.4c1.2-1.4,2.5-2.8,3.8-4.1C237.7,106.6,237.5,106.8,237.4,106.9z"/>
		</g>
		<g>
			<path class="st14" d="M230.9,114.7c0.4-0.6,0.9-1.2,1.3-1.8C231.8,113.5,231.3,114.1,230.9,114.7z"/>
		</g>
		<g>
			<path class="st14" d="M341.8,220.6c-13,11.1-28.9,18.2-45.7,20.4l0,0.1L355,371l25.4-65.3L341.8,220.6z"/>
		</g>
		<g>
			<polygon class="st14" points="424.1,395.9 424.1,395.9 424.1,395.9 			"/>
		</g>
		<g>
			<polygon class="st14" points="370.7,384.6 368.6,390.2 368.2,391.2 371.1,383.6 			"/>
		</g>
		<g>
			<path class="st14" d="M294.4,218.8c0.7-0.1,1.4-0.3,2.1-0.4c1.5-0.3,3.1-0.6,4.6-1c0.8-0.2,1.6-0.5,2.4-0.7
				c1.4-0.4,2.8-0.8,4.1-1.3c0.8-0.3,1.6-0.7,2.4-1c1.3-0.6,2.6-1.1,3.9-1.7c0.8-0.4,1.5-0.8,2.3-1.2c1.2-0.7,2.5-1.4,3.7-2.1
				c0.7-0.4,1.4-0.9,2.1-1.4c1.2-0.8,2.4-1.7,3.5-2.6c0.6-0.5,1.2-1,1.8-1.5c1.2-1,2.3-2,3.4-3.1c0.5-0.5,1-1,1.5-1.6
				c1.4-1.4,2.7-2.9,4-4.5c1.1-1.4,2.2-2.9,3.2-4.4c0.1-0.1,0.2-0.3,0.3-0.4c0.8-1.2,1.5-2.5,2.2-3.7c0.4-0.7,0.7-1.3,1.1-2
				c0.7-1.3,1.3-2.6,1.9-4c0.1-0.2,0.2-0.4,0.3-0.6c0.7-1.6,1.4-3.3,1.9-5.1c1.1-3.4,2-6.9,2.5-10.4c0-0.3,0.1-0.6,0.1-0.9
				c2.4-16.4-1.6-32.9-10.5-46.3c-0.2-0.2-0.3-0.5-0.5-0.7c-0.8-1.2-1.7-2.4-2.6-3.6c-0.4-0.6-0.9-1.1-1.3-1.6c-0.9-1-1.7-2.1-2.6-3
				c0,0-0.1-0.1-0.1-0.1c-1.2-1.2-2.4-2.4-3.7-3.6c-1.5-1.4-3.2-2.7-4.8-3.9c-1.4-1-2.8-2-4.3-2.9c-0.7-0.4-1.4-0.8-2-1.2
				c-1.4-0.8-2.8-1.5-4.3-2.2h0h0c0,0,0,0,0,0c-0.6-0.3-1.1-0.5-1.7-0.8c-1.2-0.5-2.4-1-3.5-1.4c-0.5-0.2-0.9-0.3-1.4-0.5
				c-0.8-0.3-1.6-0.6-2.5-0.8c-0.5-0.2-1-0.3-1.5-0.4c-0.9-0.2-1.7-0.5-2.6-0.7c-0.9-0.2-1.9-0.4-2.8-0.6c-0.5-0.1-1-0.2-1.5-0.3
				c-0.2-0.1-0.4-0.1-0.7-0.1c-0.5-0.1-0.9-0.2-1.4-0.2c-1.5-0.2-3.1-0.4-4.6-0.5c-0.5,0-1.1-0.1-1.6-0.1c-0.2,0-0.3,0-0.5,0
				c-0.7,0-1.4,0-2.2,0l0,0c-0.7,0-1.3,0-2,0c-0.7,0-1.3,0-2,0.1h0c0,0,0,0,0,0l0,0c0,0,0,0,0,0c-0.5,0-1.1,0.1-1.6,0.1
				c-0.7,0.1-1.3,0.1-2,0.2c-0.6,0.1-1.2,0.2-1.9,0.2c-0.9,0.1-1.8,0.3-2.6,0.4c-0.4,0.1-0.7,0.1-1,0.2c-0.5,0.1-1,0.2-1.5,0.3
				c-0.5,0.1-1,0.2-1.5,0.4c-0.5,0.1-1,0.2-1.5,0.4c-0.5,0.1-1,0.3-1.5,0.4c-0.2,0-0.3,0.1-0.5,0.2c-0.4,0.1-0.9,0.3-1.3,0.4
				c-0.4,0.1-0.8,0.3-1.2,0.4c-0.7,0.2-1.3,0.5-2,0.7c-1.3,0.5-2.5,1-3.8,1.6c-0.7,0.3-1.4,0.6-2.1,1c-0.6,0.3-1.3,0.7-1.9,1
				c-0.7,0.4-1.3,0.8-2,1.2c-0.7,0.4-1.3,0.8-2,1.2c-0.6,0.4-1.3,0.8-1.9,1.3c-1.1,0.8-2.1,1.6-3.2,2.4c-0.3,0.2-0.6,0.4-0.8,0.7
				c-0.1,0.1-0.2,0.2-0.3,0.2c-0.5,0.4-1,0.8-1.5,1.3c-0.3,0.3-0.6,0.5-0.9,0.8c-0.6,0.6-1.3,1.2-1.9,1.8c0,0-0.1,0.1-0.1,0.1
				c-0.1,0.1-0.1,0.1-0.1,0.2c-1.3,1.3-2.6,2.7-3.8,4.1c-0.6,0.7-1.2,1.5-1.8,2.3c-0.4,0.6-0.9,1.2-1.3,1.8
				c-3.3,4.5-6.1,9.4-8.2,14.8c-3.3,8.4-4.6,17-4.4,25.5c0,0.4,0,0.7,0,1.1c0.1,2,0.2,4,0.5,5.9c0.1,1,0.3,2.1,0.4,3.1
				c0.2,0.9,0.4,1.9,0.6,2.8c0.4,1.7,0.8,3.3,1.3,5c0.2,0.6,0.4,1.2,0.6,1.8c0.6,1.9,1.4,3.8,2.2,5.6c0.1,0.2,0.2,0.3,0.2,0.5
				c0.9,2,1.9,4,3.1,6c0,0.1,0.1,0.1,0.1,0.2c0.1,0.1,0.1,0.2,0.2,0.3c0.8,1.3,1.6,2.6,2.5,3.8c0.1,0.1,0.1,0.2,0.2,0.3
				c0,0,0.1,0.1,0.1,0.1c0.2,0.3,0.5,0.6,0.7,1c0.7,1,1.4,2,2.2,2.9c0,0.1,0.1,0.1,0.1,0.2c1.1,1.4,2.3,2.7,3.6,4
				c0.1,0.2,0.3,0.3,0.4,0.5L187,329.5l-26.5,68.1l-0.1,0.2h0h57.7l0,0l0.5-1.4l0.1-0.3l0.2-0.6l67.2-172.8v0l1.2-3.1
				C289.8,219.4,292.1,219.2,294.4,218.8z M294.6,127.1c14.5,5.7,21.8,22,16.1,36.6s-22,21.8-36.6,16.1c-14.5-5.7-21.8-22-16.1-36.6
				C263.7,128.7,280,121.4,294.6,127.1z"/>
		</g>
		<g>
			<path class="st14" d="M539.5,38.8c-9.3-4.4-19.1-6.5-28.6-6.5c-26.5,0-51.5,16-61.7,42.2c-9.8,25.1-3.1,52.6,14.7,70.6L393,327.4
				l-18.4,47.2l18.4-47.2l0,0l-21.9,56.1l-3,7.6l-2.5,6.4l-0.1,0.2h57.7l0.7-1.8l0,0v0L514,164.5c26.3-1.3,50.6-18.3,59.6-45.2
				C584.1,87.9,569.4,53.1,539.5,38.8z M537.2,108.7c-5.7,14.6-22,21.8-36.6,16.1c-14.5-5.7-21.8-22-16.1-36.6s22-21.8,36.6-16.1
				C535.6,77.8,542.8,94.2,537.2,108.7z"/>
		</g>
		<g>
			<polygon class="st14" points="393,327.5 393,327.4 374.6,374.6 370.7,384.6 371.1,383.6 			"/>
		</g>
		<g>
			<path class="st14" d="M97.9,141.6c-37,0-66.9,30-66.9,66.9s30,66.9,66.9,66.9s66.9-30,66.9-66.9
				C164.9,171.6,134.9,141.6,97.9,141.6z M97.9,236.1c-15.2,0-27.5-12.3-27.5-27.5c0-15.2,12.3-27.5,27.5-27.5s27.5,12.3,27.5,27.5
				C125.4,223.7,113.1,236.1,97.9,236.1z"/>
		</g>
	</g>
</g>
<g>
	<text transform="matrix(1 0 0 1 2456.4551 18.7344)" class="st14" style="font-family:'Eurostile-Hea'; font-size:95.2712px;">ORK UP</text>
	<g>
		<path class="st14" d="M2345.8-19.8c-3.7,3.4-8.4,5.6-13.4,6.4l0,0v0l11.8,24l7.3-18.8L2345.8-19.8z"/>
		<path class="st14" d="M2364.9,18.4L2364.9,18.4L2364.9,18.4L2364.9,18.4z"/>
		<path class="st14" d="M2365.1,18L2365.1,18L2365.1,18C2365.1,18,2365.1,18,2365.1,18z"/>
		<path class="st14" d="M2389.9-35.8c-0.5,0.1-0.9,0.2-1.4,0.3C2388.9-35.6,2389.4-35.7,2389.9-35.8z"/>
		<path class="st14" d="M2391.8-36.5c-0.4,0.2-0.8,0.3-1.2,0.4C2391-36.2,2391.4-36.3,2391.8-36.5z"/>
		<path class="st14" d="M2395.5-38.3c-0.4,0.2-0.7,0.4-1.1,0.7C2394.8-37.9,2395.1-38.1,2395.5-38.3z"/>
		<path class="st14" d="M2399.2-41.4c0.2-0.2,0.4-0.3,0.5-0.5v0c0.2-0.3,0.5-0.5,0.7-0.8c0.2-0.3,0.4-0.6,0.7-0.9
			c0.1-0.1,0.2-0.2,0.2-0.3c0,0,0,0,0.1-0.1c-0.3,0.5-0.6,0.9-0.9,1.3C2400.1-42.2,2399.7-41.8,2399.2-41.4z"/>
		<path class="st14" d="M2403.1-47.3c0.1-0.2,0.2-0.5,0.3-0.8c0.1-0.2,0.2-0.5,0.3-0.8c0.1-0.3,0.2-0.5,0.2-0.8s0.1-0.5,0.2-0.8
			c0.1-0.3,0.1-0.5,0.2-0.8c0,0,0,0,0,0c0.1-0.3,0.1-0.5,0.1-0.8c-0.2,1-0.4,2.1-0.8,3.1C2403.6-48.3,2403.4-47.8,2403.1-47.3z"/>
		<path class="st14" d="M2401.6-44.4c0.1-0.1,0.1-0.1,0.1-0.2c0-0.1,0.1-0.1,0.1-0.2c0.1-0.1,0.1-0.2,0.1-0.3
			c0.1-0.1,0.1-0.2,0.1-0.2c-0.2,0.4-0.4,0.8-0.7,1.1C2401.5-44.2,2401.6-44.3,2401.6-44.4z"/>
		<path class="st14" d="M2398.8-40.9c-0.3,0.3-0.7,0.6-1,0.9C2398.1-40.3,2398.4-40.6,2398.8-40.9z"/>
		<path class="st14" d="M2397.2-39.5c-0.4,0.3-0.7,0.5-1.1,0.8C2396.5-39,2396.9-39.2,2397.2-39.5z"/>
		<path class="st14" d="M2368.5-43.7C2368.6-43.7,2368.6-43.7,2368.5-43.7c0.1,0.1,0.2,0.2,0.2,0.3
			C2368.7-43.5,2368.6-43.5,2368.5-43.7C2368.6-43.7,2368.6-43.7,2368.5-43.7z"/>
		<path class="st14" d="M2402.7-46.3c0.1-0.1,0.1-0.2,0.2-0.3c0.1-0.1,0.1-0.2,0.2-0.4c0,0,0-0.1,0-0.1c-0.2,0.4-0.4,0.8-0.6,1.2
			C2402.6-46,2402.6-46.2,2402.7-46.3z"/>
		<path class="st14" d="M2372.3-70.6C2372.3-70.5,2372.2-70.5,2372.3-70.6c-0.2,0.2-0.4,0.3-0.5,0.4
			C2371.9-70.2,2372.1-70.4,2372.3-70.6C2372.2-70.5,2372.3-70.5,2372.3-70.6z"/>
		<path class="st14" d="M2385.8-35.2l-0.4,0.9l0,0L2385.8-35.2c0.7,0,1.4-0.1,2.1-0.2C2387.2-35.3,2386.5-35.2,2385.8-35.2z"/>
		<path class="st14" d="M2385.6-75c0.2,0,0.3,0,0.5,0c0.5,0,0.9,0.1,1.4,0.1c0.1,0,0.3,0,0.4,0.1c0.1,0,0.1,0,0.2,0
			c0.1,0,0.3,0.1,0.5,0.1c0.3,0.1,0.6,0.1,0.9,0.2c0.3,0.1,0.5,0.1,0.8,0.2c0.1,0,0.3,0.1,0.4,0.1c0.2,0.1,0.5,0.2,0.7,0.2
			c0.1,0.1,0.3,0.1,0.4,0.2c0.4,0.1,0.7,0.3,1.1,0.4c0.2,0.1,0.4,0.2,0.5,0.2c0,0,0,0,0,0l0,0c0,0,0,0,0,0c-0.2-0.1-0.4-0.2-0.5-0.2
			c-0.4-0.2-0.7-0.3-1.1-0.4c-0.1-0.1-0.3-0.1-0.4-0.2c-0.2-0.1-0.5-0.2-0.7-0.2c-0.1-0.1-0.3-0.1-0.4-0.1c-0.2-0.1-0.5-0.1-0.8-0.2
			c-0.3-0.1-0.6-0.1-0.9-0.2c-0.1,0-0.3-0.1-0.5-0.1c-0.1,0-0.1,0-0.2,0c-0.1,0-0.3-0.1-0.4-0.1c-0.5-0.1-0.9-0.1-1.4-0.1
			C2386-75,2385.8-75,2385.6-75c-0.1,0-0.1,0-0.1,0c-0.2,0-0.4,0-0.6,0l0,0c0.2,0,0.4,0,0.6,0C2385.6-75,2385.6-75,2385.6-75z"/>
		<path class="st14" d="M2383.6-75C2383.6-75,2383.6-75,2383.6-75C2383.6-75,2383.6-75,2383.6-75C2383.6-75,2383.6-75,2383.6-75
			L2383.6-75z"/>
		<path class="st14" d="M2395.4-72c0.4,0.3,0.9,0.6,1.3,0.9c0,0,0,0-0.1-0.1c-0.1-0.1-0.2-0.1-0.3-0.2c-0.2-0.1-0.3-0.2-0.5-0.3
			C2395.7-71.8,2395.5-71.9,2395.4-72c-0.2-0.1-0.4-0.2-0.6-0.4c-0.4-0.2-0.8-0.5-1.3-0.7l0,0c0.4,0.2,0.9,0.4,1.3,0.7
			C2394.9-72.3,2395.2-72.1,2395.4-72z"/>
		<path class="st14" d="M2404.5-52.2c0.6-3.7,0.1-7.5-1.6-11.1c-0.5-1-1-1.9-1.6-2.8C2404.1-62.1,2405.3-57.1,2404.5-52.2z"/>
		<path class="st14" d="M2393.7-37.3c-0.4,0.2-0.8,0.4-1.2,0.5C2392.9-36.9,2393.3-37.1,2393.7-37.3z"/>
		<path class="st14" d="M2366.3-47.8c0.1,0.2,0.2,0.5,0.3,0.7c0,0,0,0,0,0c-0.2-0.5-0.5-1.1-0.6-1.7
			C2366.1-48.4,2366.2-48.1,2366.3-47.8z"/>
		<path class="st14" d="M2367-46.3c0.1,0.2,0.2,0.5,0.4,0.7c0,0,0,0,0,0c0.1,0.2,0.2,0.3,0.3,0.5c-0.3-0.6-0.6-1.2-0.9-1.8
			C2366.8-46.7,2366.9-46.5,2367-46.3z"/>
		<path class="st14" d="M2365.3-51.6c-0.1-0.3-0.1-0.6-0.1-0.9C2365.2-52.2,2365.2-51.9,2365.3-51.6z"/>
		<path class="st14" d="M2400.8-67c-0.1-0.2-0.3-0.3-0.4-0.5c0.3,0.3,0.5,0.7,0.8,1.1C2401.1-66.6,2401-66.8,2400.8-67z"/>
		<path class="st14" d="M2365-54.3c0-0.1,0-0.2,0-0.3C2365-54.5,2365-54.4,2365-54.3z"/>
		<path class="st14" d="M2399.6-68.4c-0.1-0.1-0.2-0.2-0.3-0.3c0,0,0,0-0.1-0.1c0.3,0.3,0.5,0.6,0.8,0.9
			C2399.9-68.1,2399.8-68.3,2399.6-68.4z"/>
		<path class="st14" d="M2365.8-49.3c-0.1-0.5-0.3-1-0.4-1.5C2365.6-50.2,2365.7-49.8,2365.8-49.3z"/>
		<path class="st14" d="M2398.9-69.2c-0.1-0.1-0.2-0.2-0.2-0.2c-0.2-0.2-0.3-0.3-0.5-0.5c0.4,0.3,0.8,0.7,1.1,1.1
			C2399.1-69,2399-69.1,2398.9-69.2z"/>
		<path class="st14" d="M2369.8-42c0.2,0.3,0.5,0.5,0.7,0.8c0,0,0,0,0,0c-0.4-0.4-0.7-0.8-1.1-1.2
			C2369.6-42.3,2369.7-42.2,2369.8-42z"/>
		<path class="st14" d="M2370.7-69.1c-0.1,0.1-0.3,0.3-0.4,0.4c-0.1,0.1-0.2,0.2-0.3,0.3c-0.1,0.1-0.1,0.1-0.2,0.2
			c0,0-0.1,0.1-0.1,0.1c0.4-0.4,0.8-0.8,1.1-1.2C2370.8-69.2,2370.7-69.2,2370.7-69.1z"/>
		<path class="st14" d="M2368.8-66.8c0.1-0.2,0.3-0.4,0.4-0.5C2369-67.1,2368.9-67,2368.8-66.8z"/>
		<path class="st14" d="M2402.1-34.9c-3.9,3.3-8.7,5.5-13.8,6.1l0,0l17.8,39.1l7.6-19.6L2402.1-34.9z"/>
		<polygon class="st14" points="2426.9,17.9 2426.9,17.9 2426.9,17.9 		"/>
		<polygon class="st14" points="2410.8,14.5 2410.2,16.1 2410.1,16.4 2411,14.1 		"/>
		<path class="st14" d="M2387.9-35.4c0.2,0,0.4-0.1,0.6-0.1c0.5-0.1,0.9-0.2,1.4-0.3c0.2-0.1,0.5-0.2,0.7-0.2
			c0.4-0.1,0.8-0.2,1.2-0.4c0.2-0.1,0.5-0.2,0.7-0.3c0.4-0.2,0.8-0.3,1.2-0.5c0.2-0.1,0.5-0.2,0.7-0.4c0.4-0.2,0.8-0.4,1.1-0.7
			c0.2-0.1,0.4-0.3,0.6-0.4c0.4-0.2,0.7-0.5,1.1-0.8c0.2-0.2,0.4-0.3,0.6-0.5c0.4-0.3,0.7-0.6,1-0.9c0.2-0.2,0.3-0.3,0.5-0.5
			c0.4-0.4,0.8-0.9,1.2-1.3c0.3-0.4,0.6-0.9,0.9-1.3c0,0,0.1-0.1,0.1-0.1c0.2-0.4,0.5-0.7,0.7-1.1c0.1-0.2,0.2-0.4,0.3-0.6
			c0.2-0.4,0.4-0.8,0.6-1.2c0-0.1,0.1-0.1,0.1-0.2c0.2-0.5,0.4-1,0.6-1.5c0.4-1,0.6-2.1,0.8-3.1c0-0.1,0-0.2,0-0.3
			c0.7-4.9-0.5-9.9-3.1-13.9c-0.1-0.1-0.1-0.1-0.1-0.2c-0.2-0.4-0.5-0.7-0.8-1.1c-0.1-0.2-0.3-0.3-0.4-0.5c-0.3-0.3-0.5-0.6-0.8-0.9
			c0,0,0,0,0,0c-0.4-0.4-0.7-0.7-1.1-1.1c-0.5-0.4-0.9-0.8-1.5-1.2c-0.4-0.3-0.9-0.6-1.3-0.9c-0.2-0.1-0.4-0.2-0.6-0.4
			c-0.4-0.2-0.8-0.5-1.3-0.7l0,0l0,0c0,0,0,0,0,0c-0.2-0.1-0.3-0.2-0.5-0.2c-0.4-0.2-0.7-0.3-1.1-0.4c-0.1-0.1-0.3-0.1-0.4-0.2
			c-0.2-0.1-0.5-0.2-0.7-0.2c-0.1-0.1-0.3-0.1-0.4-0.1c-0.3-0.1-0.5-0.1-0.8-0.2c-0.3-0.1-0.6-0.1-0.9-0.2c-0.1,0-0.3-0.1-0.5-0.1
			c-0.1,0-0.1,0-0.2,0c-0.1,0-0.3-0.1-0.4-0.1c-0.5-0.1-0.9-0.1-1.4-0.1c-0.2,0-0.3,0-0.5,0c-0.1,0-0.1,0-0.1,0c-0.2,0-0.4,0-0.6,0
			l0,0c-0.2,0-0.4,0-0.6,0c-0.2,0-0.4,0-0.6,0l0,0c0,0,0,0,0,0l0,0c0,0,0,0,0,0c-0.2,0-0.3,0-0.5,0c-0.2,0-0.4,0-0.6,0.1
			c-0.2,0-0.4,0.1-0.6,0.1c-0.3,0-0.5,0.1-0.8,0.1c-0.1,0-0.2,0-0.3,0.1c-0.1,0-0.3,0.1-0.4,0.1s-0.3,0.1-0.4,0.1
			c-0.1,0-0.3,0.1-0.4,0.1c-0.1,0-0.3,0.1-0.4,0.1c-0.1,0-0.1,0-0.1,0.1c-0.1,0-0.3,0.1-0.4,0.1c-0.1,0-0.2,0.1-0.4,0.1
			c-0.2,0.1-0.4,0.1-0.6,0.2c-0.4,0.2-0.8,0.3-1.1,0.5c-0.2,0.1-0.4,0.2-0.6,0.3c-0.2,0.1-0.4,0.2-0.6,0.3c-0.2,0.1-0.4,0.2-0.6,0.3
			c-0.2,0.1-0.4,0.2-0.6,0.4c-0.2,0.1-0.4,0.2-0.6,0.4c-0.3,0.2-0.6,0.5-1,0.7c-0.1,0.1-0.2,0.1-0.2,0.2c0,0-0.1,0.1-0.1,0.1
			c-0.1,0.1-0.3,0.2-0.4,0.4c-0.1,0.1-0.2,0.2-0.3,0.2c-0.2,0.2-0.4,0.4-0.6,0.5c0,0,0,0,0,0c0,0,0,0,0,0.1
			c-0.4,0.4-0.8,0.8-1.1,1.2c-0.2,0.2-0.4,0.4-0.6,0.7c-0.1,0.2-0.3,0.3-0.4,0.5c-1,1.3-1.8,2.8-2.5,4.5c-1,2.5-1.4,5.1-1.3,7.7
			c0,0.1,0,0.2,0,0.3c0,0.6,0.1,1.2,0.2,1.8c0,0.3,0.1,0.6,0.1,0.9c0.1,0.3,0.1,0.6,0.2,0.8c0.1,0.5,0.2,1,0.4,1.5
			c0.1,0.2,0.1,0.3,0.2,0.5c0.2,0.6,0.4,1.1,0.6,1.7c0,0,0.1,0.1,0.1,0.2c0.3,0.6,0.6,1.2,0.9,1.8c0,0,0,0,0,0.1c0,0,0,0.1,0.1,0.1
			c0.2,0.4,0.5,0.8,0.7,1.2c0,0,0,0.1,0.1,0.1c0,0,0,0,0,0c0.1,0.1,0.1,0.2,0.2,0.3c0.2,0.3,0.4,0.6,0.7,0.9c0,0,0,0,0,0
			c0.3,0.4,0.7,0.8,1.1,1.2c0.1,0,0.1,0.1,0.1,0.1l-15.1,38.9l-8,20.5l0,0.1l0,0h17.4v0l0.2-0.4l0-0.1l0.1-0.2l20.2-52l0,0l0.4-0.9
			C2386.5-35.2,2387.2-35.3,2387.9-35.4z M2387.9-63c4.4,1.7,6.6,6.6,4.9,11s-6.6,6.5-11,4.8s-6.6-6.6-4.9-11
			C2378.6-62.6,2383.5-64.7,2387.9-63z"/>
		<path class="st14" d="M2461.6-89.6c-2.8-1.3-5.7-2-8.6-2c-8,0-15.5,4.8-18.6,12.7c-2.9,7.6-0.9,15.8,4.4,21.2l-21.3,54.9
			l-5.5,14.2l5.5-14.2l0,0l-6.6,16.9l-0.9,2.3l-0.8,1.9l0,0h17.4l0.2-0.5l0,0l0,0l27.1-69.6c7.9-0.4,15.2-5.5,17.9-13.6
			C2475.1-74.8,2470.6-85.3,2461.6-89.6z M2460.9-68.6c-1.7,4.4-6.6,6.5-11,4.8c-4.4-1.7-6.6-6.6-4.9-11c1.7-4.4,6.6-6.6,11-4.8
			S2462.6-72.9,2460.9-68.6z"/>
		<polygon class="st14" points="2417.5,-2.7 2417.5,-2.8 2412,11.5 2410.8,14.5 2411,14.1 		"/>
		<path class="st14" d="M2328.7-58.7c-11.1,0-20.1,9-20.1,20.1s9,20.1,20.1,20.1c11.1,0,20.1-9,20.1-20.1
			C2348.9-49.7,2339.9-58.7,2328.7-58.7z M2328.7-30.2c-4.6,0-8.3-3.7-8.3-8.3s3.7-8.3,8.3-8.3s8.3,3.7,8.3,8.3
			S2333.3-30.2,2328.7-30.2z"/>
	</g>
</g>
<rect x="1577" y="-419" class="st10" width="76" height="76"/>
<rect x="1490" y="-419" class="st8" width="76" height="76"/>
<rect x="2087" y="-576" class="st12" width="179.9" height="221"/>
<rect x="2281.3" y="-576" class="st13" width="179.9" height="221"/>
<rect x="2478.1" y="-576" class="st15" width="179.9" height="221"/>
</svg>
